<svg width="20" height="20" viewBox="0 0 20 20" fill="none" xmlns="http://www.w3.org/2000/svg">
<path d="M12.0253 15.6833C11.8669 15.6833 11.7086 15.625 11.5836 15.5C11.3419 15.2583 11.3419 14.8583 11.5836 14.6166L16.2003 9.99998L11.5836 5.38331C11.3419 5.14164 11.3419 4.74164 11.5836 4.49998C11.8253 4.25831 12.2253 4.25831 12.4669 4.49998L17.5253 9.55831C17.7669 9.79998 17.7669 10.2 17.5253 10.4416L12.4669 15.5C12.3419 15.625 12.1836 15.6833 12.0253 15.6833Z" fill="#242424"/>
<path d="M16.942 10.625H2.91699C2.57533 10.625 2.29199 10.3417 2.29199 10C2.29199 9.65833 2.57533 9.375 2.91699 9.375H16.942C17.2837 9.375 17.567 9.65833 17.567 10C17.567 10.3417 17.2837 10.625 16.942 10.625Z" fill="#242424"/>
</svg>
