<svg width="68" height="68" viewBox="0 0 68 68" fill="none" xmlns="http://www.w3.org/2000/svg">
<rect width="68" height="68" fill="white"/>
<path d="M34 68C24.9826 68 16.3346 64.4179 9.95837 58.0416C3.58213 51.6654 -2.50846e-07 43.0174 0 34C2.50846e-07 24.9826 3.58213 16.3346 9.95837 9.95837C16.3346 3.58213 24.9826 -1.07531e-07 34 0V6.8C26.7861 6.8 19.8677 9.6657 14.7667 14.7667C9.66571 19.8677 6.8 26.7861 6.8 34C6.8 41.2139 9.6657 48.1323 14.7667 53.2333C19.8677 58.3343 26.7861 61.2 34 61.2V68Z" fill="#D9D9D9"/>
<path d="M34 0C38.4649 5.32439e-08 42.8862 0.879436 47.0112 2.5881C51.1363 4.29676 54.8844 6.80118 58.0416 9.95837C61.1988 13.1156 63.7032 16.8637 65.4119 20.9888C67.1206 25.1138 68 29.5351 68 34C68 38.465 67.1206 42.8862 65.4119 47.0112C63.7032 51.1363 61.1988 54.8844 58.0416 58.0416C54.8844 61.1988 51.1363 63.7033 47.0112 65.4119C42.8862 67.1206 38.4649 68 34 68L34 61.2C37.5719 61.2 41.1089 60.4965 44.409 59.1295C47.709 57.7626 50.7075 55.7591 53.2333 53.2333C55.7591 50.7076 57.7626 47.7091 59.1295 44.409C60.4965 41.1089 61.2 37.572 61.2 34C61.2 30.428 60.4965 26.8911 59.1295 23.591C57.7626 20.291 55.7591 17.2925 53.2333 14.7667C50.7076 12.2409 47.709 10.2374 44.409 8.87048C41.1089 7.50355 37.572 6.8 34 6.8V0Z" fill="#A72F3B"/>
<path d="M24.5527 29.032C24.7687 29.52 24.9327 30.068 25.0447 30.676C25.1647 31.284 25.2407 31.884 25.2727 32.476C25.3127 33.06 25.3327 33.672 25.3327 34.312V34.72L25.3087 37H24.5647L24.5887 34.72V34.432C24.5887 33.792 24.5727 33.192 24.5407 32.632C24.5087 32.072 24.4407 31.504 24.3367 30.928C24.2327 30.352 24.0767 29.836 23.8687 29.38L24.5527 29.032ZM27.9727 29.044L28.1887 30.52C28.2607 30.96 28.2087 31.352 28.0327 31.696C27.8647 32.032 27.6287 32.288 27.3247 32.464C27.0287 32.64 26.7207 32.728 26.4007 32.728C25.9127 32.728 25.5127 32.596 25.2007 32.332C24.8887 32.06 24.6487 31.608 24.4807 30.976L25.0567 30.76C25.1367 31.184 25.2927 31.48 25.5247 31.648C25.7567 31.808 26.0487 31.888 26.4007 31.888C26.6087 31.888 26.8007 31.844 26.9767 31.756C27.1527 31.66 27.2847 31.52 27.3727 31.336C27.4607 31.144 27.4847 30.908 27.4447 30.628L27.2287 29.176L27.9727 29.044ZM35.6425 33.364V36.808C35.6425 37.504 35.5225 38.092 35.2825 38.572C35.0505 39.052 34.7025 39.412 34.2385 39.652C33.7825 39.9 33.2265 40.024 32.5705 40.024H31.8145V39.184H32.5705C33.1145 39.184 33.5545 39.1 33.8905 38.932C34.2345 38.772 34.4865 38.516 34.6465 38.164C34.8145 37.82 34.8985 37.368 34.8985 36.808V33.364H35.6425ZM34.7185 30.64C34.8945 30.64 35.0745 30.64 35.2585 30.64C35.4345 30.64 35.6105 30.64 35.7865 30.64C35.7865 30.888 35.7865 31.072 35.7865 31.192C35.7865 31.304 35.7865 31.476 35.7865 31.708C35.5385 31.708 35.3545 31.708 35.2345 31.708C35.1225 31.708 34.9505 31.708 34.7185 31.708C34.7185 31.468 34.7185 31.292 34.7185 31.18C34.7185 31.06 34.7185 30.88 34.7185 30.64ZM37.3593 29.212H38.1033L38.1153 37H37.3713L37.3593 29.212ZM43.1152 29.032C43.3312 29.52 43.4952 30.068 43.6072 30.676C43.7272 31.284 43.8032 31.884 43.8352 32.476C43.8752 33.06 43.8952 33.672 43.8952 34.312V34.72L43.8712 37H43.1272L43.1512 34.72V34.432C43.1512 33.792 43.1352 33.192 43.1032 32.632C43.0712 32.072 43.0032 31.504 42.8992 30.928C42.7952 30.352 42.6392 29.836 42.4312 29.38L43.1152 29.032Z" fill="#242424"/>
</svg>
