<svg width="68" height="68" viewBox="0 0 68 68" fill="none" xmlns="http://www.w3.org/2000/svg">
<rect width="68" height="68" fill="white"/>
<path d="M34 68C24.9826 68 16.3346 64.4179 9.95837 58.0416C3.58213 51.6654 -2.50846e-07 43.0174 0 34C2.50846e-07 24.9826 3.58213 16.3346 9.95837 9.95837C16.3346 3.58213 24.9826 -1.07531e-07 34 0V6.8C26.7861 6.8 19.8677 9.6657 14.7667 14.7667C9.66571 19.8677 6.8 26.7861 6.8 34C6.8 41.2139 9.6657 48.1323 14.7667 53.2333C19.8677 58.3343 26.7861 61.2 34 61.2V68Z" fill="#D9D9D9"/>
<path d="M68 34C68 52.7777 52.7777 68 34 68C15.2223 68 0 52.7777 0 34C0 15.2223 15.2223 0 34 0C52.7777 0 68 15.2223 68 34ZM6.8 34C6.8 49.0221 18.9779 61.2 34 61.2C49.0221 61.2 61.2 49.0221 61.2 34C61.2 18.9779 49.0221 6.8 34 6.8C18.9779 6.8 6.8 18.9779 6.8 34Z" fill="#A72F3B"/>
<path d="M23.1699 29.032C23.3859 29.52 23.5499 30.068 23.6619 30.676C23.7819 31.284 23.8579 31.884 23.8899 32.476C23.9299 33.06 23.9499 33.672 23.9499 34.312V34.72L23.9259 37H23.1819L23.2059 34.72V34.432C23.2059 33.792 23.1899 33.192 23.1579 32.632C23.1259 32.072 23.0579 31.504 22.9539 30.928C22.8499 30.352 22.6939 29.836 22.4859 29.38L23.1699 29.032ZM26.5899 29.044L26.8059 30.52C26.8779 30.96 26.8259 31.352 26.6499 31.696C26.4819 32.032 26.2459 32.288 25.9419 32.464C25.6459 32.64 25.3379 32.728 25.0179 32.728C24.5299 32.728 24.1299 32.596 23.8179 32.332C23.5059 32.06 23.2659 31.608 23.0979 30.976L23.6739 30.76C23.7539 31.184 23.9099 31.48 24.1419 31.648C24.3739 31.808 24.6659 31.888 25.0179 31.888C25.2259 31.888 25.4179 31.844 25.5939 31.756C25.7699 31.66 25.9019 31.52 25.9899 31.336C26.0779 31.144 26.1019 30.908 26.0619 30.628L25.8459 29.176L26.5899 29.044ZM34.2596 33.364V36.808C34.2596 37.504 34.1396 38.092 33.8996 38.572C33.6676 39.052 33.3196 39.412 32.8556 39.652C32.3996 39.9 31.8436 40.024 31.1876 40.024H30.4316V39.184H31.1876C31.7316 39.184 32.1716 39.1 32.5076 38.932C32.8516 38.772 33.1036 38.516 33.2636 38.164C33.4316 37.82 33.5156 37.368 33.5156 36.808V33.364H34.2596ZM33.3356 30.64C33.5116 30.64 33.6916 30.64 33.8756 30.64C34.0516 30.64 34.2276 30.64 34.4036 30.64C34.4036 30.888 34.4036 31.072 34.4036 31.192C34.4036 31.304 34.4036 31.476 34.4036 31.708C34.1556 31.708 33.9716 31.708 33.8516 31.708C33.7396 31.708 33.5676 31.708 33.3356 31.708C33.3356 31.468 33.3356 31.292 33.3356 31.18C33.3356 31.06 33.3356 30.88 33.3356 30.64ZM35.9765 29.212H36.7205L36.7325 37H35.9885L35.9765 29.212ZM41.7324 29.032C41.9484 29.52 42.1124 30.068 42.2244 30.676C42.3444 31.284 42.4204 31.884 42.4524 32.476C42.4924 33.06 42.5124 33.672 42.5124 34.312V34.72L42.4884 37H41.7444L41.7684 34.72V34.432C41.7684 33.792 41.7524 33.192 41.7204 32.632C41.6884 32.072 41.6204 31.504 41.5164 30.928C41.4124 30.352 41.2564 29.836 41.0484 29.38L41.7324 29.032ZM45.1524 29.044L45.3684 30.52C45.4404 30.96 45.3884 31.352 45.2124 31.696C45.0444 32.032 44.8084 32.288 44.5044 32.464C44.2084 32.64 43.9004 32.728 43.5804 32.728C43.0924 32.728 42.6924 32.596 42.3804 32.332C42.0684 32.06 41.8284 31.608 41.6604 30.976L42.2364 30.76C42.3164 31.184 42.4724 31.48 42.7044 31.648C42.9364 31.808 43.2284 31.888 43.5804 31.888C43.7884 31.888 43.9804 31.844 44.1564 31.756C44.3324 31.66 44.4644 31.52 44.5524 31.336C44.6404 31.144 44.6644 30.908 44.6244 30.628L44.4084 29.176L45.1524 29.044Z" fill="#242424"/>
</svg>
