<svg width="16" height="16" viewBox="0 0 16 16" fill="none" xmlns="http://www.w3.org/2000/svg">
<path d="M5.33398 3.83594C5.06065 3.83594 4.83398 3.60927 4.83398 3.33594V1.33594C4.83398 1.0626 5.06065 0.835938 5.33398 0.835938C5.60732 0.835938 5.83398 1.0626 5.83398 1.33594V3.33594C5.83398 3.60927 5.60732 3.83594 5.33398 3.83594Z" fill="#AFAFAF"/>
<path d="M10.666 3.83594C10.3927 3.83594 10.166 3.60927 10.166 3.33594V1.33594C10.166 1.0626 10.3927 0.835938 10.666 0.835938C10.9393 0.835938 11.166 1.0626 11.166 1.33594V3.33594C11.166 3.60927 10.9393 3.83594 10.666 3.83594Z" fill="#AFAFAF"/>
<path d="M5.66667 9.66557C5.58 9.66557 5.49333 9.64558 5.41333 9.61225C5.32667 9.57891 5.26 9.53223 5.19333 9.47223C5.07333 9.34557 5 9.17891 5 8.99891C5 8.91224 5.02 8.82557 5.05333 8.74557C5.08667 8.66557 5.13333 8.59224 5.19333 8.52558C5.26 8.46558 5.32667 8.4189 5.41333 8.38556C5.65333 8.28556 5.95333 8.33891 6.14 8.52558C6.26 8.65224 6.33333 8.82557 6.33333 8.99891C6.33333 9.03891 6.32667 9.08558 6.32 9.13225C6.31333 9.17225 6.3 9.21224 6.28 9.25224C6.26667 9.29224 6.24667 9.33224 6.22 9.37224C6.2 9.40557 6.16667 9.4389 6.14 9.47223C6.01333 9.59223 5.84 9.66557 5.66667 9.66557Z" fill="#AFAFAF"/>
<path d="M8.00065 9.66854C7.91398 9.66854 7.82732 9.64854 7.74732 9.61521C7.66065 9.58188 7.59399 9.5352 7.52732 9.4752C7.40732 9.34853 7.33398 9.18187 7.33398 9.00187C7.33398 8.9152 7.35399 8.82853 7.38732 8.74853C7.42065 8.66853 7.46732 8.59521 7.52732 8.52854C7.59399 8.46854 7.66065 8.42186 7.74732 8.38853C7.98732 8.28186 8.28732 8.34187 8.47398 8.52854C8.59398 8.65521 8.66732 8.82854 8.66732 9.00187C8.66732 9.04187 8.66065 9.08854 8.65398 9.13521C8.64732 9.17521 8.63398 9.21521 8.61398 9.25521C8.60065 9.29521 8.58065 9.3352 8.55399 9.3752C8.53399 9.40853 8.50065 9.44186 8.47398 9.4752C8.34732 9.5952 8.17398 9.66854 8.00065 9.66854Z" fill="#AFAFAF"/>
<path d="M10.3327 9.66854C10.246 9.66854 10.1593 9.64854 10.0793 9.61521C9.99268 9.58188 9.92602 9.5352 9.85935 9.4752C9.83268 9.44186 9.80601 9.40853 9.77935 9.3752C9.75268 9.3352 9.73268 9.29521 9.71935 9.25521C9.69935 9.21521 9.68602 9.17521 9.67935 9.13521C9.67268 9.08854 9.66602 9.04187 9.66602 9.00187C9.66602 8.82854 9.73935 8.65521 9.85935 8.52854C9.92602 8.46854 9.99268 8.42186 10.0793 8.38853C10.326 8.28186 10.6193 8.34187 10.806 8.52854C10.926 8.65521 10.9993 8.82854 10.9993 9.00187C10.9993 9.04187 10.9927 9.08854 10.986 9.13521C10.9793 9.17521 10.966 9.21521 10.946 9.25521C10.9327 9.29521 10.9127 9.3352 10.886 9.3752C10.866 9.40853 10.8327 9.44186 10.806 9.4752C10.6793 9.5952 10.506 9.66854 10.3327 9.66854Z" fill="#AFAFAF"/>
<path d="M5.66667 11.9969C5.58 11.9969 5.49333 11.9769 5.41333 11.9435C5.33333 11.9102 5.26 11.8635 5.19333 11.8035C5.07333 11.6769 5 11.5035 5 11.3302C5 11.2435 5.02 11.1569 5.05333 11.0769C5.08667 10.9902 5.13333 10.9169 5.19333 10.8569C5.44 10.6102 5.89333 10.6102 6.14 10.8569C6.26 10.9835 6.33333 11.1569 6.33333 11.3302C6.33333 11.5035 6.26 11.6769 6.14 11.8035C6.01333 11.9235 5.84 11.9969 5.66667 11.9969Z" fill="#AFAFAF"/>
<path d="M8.00065 11.9969C7.82732 11.9969 7.65399 11.9235 7.52732 11.8035C7.40732 11.6769 7.33398 11.5035 7.33398 11.3302C7.33398 11.2435 7.35399 11.1569 7.38732 11.0769C7.42065 10.9902 7.46732 10.9169 7.52732 10.8569C7.77399 10.6102 8.22732 10.6102 8.47398 10.8569C8.53398 10.9169 8.58065 10.9902 8.61398 11.0769C8.64732 11.1569 8.66732 11.2435 8.66732 11.3302C8.66732 11.5035 8.59398 11.6769 8.47398 11.8035C8.34732 11.9235 8.17398 11.9969 8.00065 11.9969Z" fill="#AFAFAF"/>
<path d="M10.3327 11.998C10.1593 11.998 9.98602 11.9246 9.85935 11.8046C9.79935 11.7446 9.75268 11.6713 9.71935 11.5847C9.68602 11.5047 9.66602 11.418 9.66602 11.3313C9.66602 11.2447 9.68602 11.158 9.71935 11.078C9.75268 10.9913 9.79935 10.918 9.85935 10.858C10.0127 10.7047 10.246 10.6313 10.4593 10.678C10.506 10.6846 10.546 10.698 10.586 10.718C10.626 10.7313 10.666 10.7513 10.706 10.778C10.7393 10.798 10.7727 10.8313 10.806 10.858C10.926 10.9847 10.9993 11.158 10.9993 11.3313C10.9993 11.5047 10.926 11.678 10.806 11.8046C10.6793 11.9246 10.506 11.998 10.3327 11.998Z" fill="#AFAFAF"/>
<path d="M13.6673 6.5625H2.33398C2.06065 6.5625 1.83398 6.33583 1.83398 6.0625C1.83398 5.78917 2.06065 5.5625 2.33398 5.5625H13.6673C13.9407 5.5625 14.1673 5.78917 14.1673 6.0625C14.1673 6.33583 13.9407 6.5625 13.6673 6.5625Z" fill="#AFAFAF"/>
<path d="M10.6667 15.1693H5.33333C2.9 15.1693 1.5 13.7693 1.5 11.3359V5.66927C1.5 3.23594 2.9 1.83594 5.33333 1.83594H10.6667C13.1 1.83594 14.5 3.23594 14.5 5.66927V11.3359C14.5 13.7693 13.1 15.1693 10.6667 15.1693ZM5.33333 2.83594C3.42667 2.83594 2.5 3.7626 2.5 5.66927V11.3359C2.5 13.2426 3.42667 14.1693 5.33333 14.1693H10.6667C12.5733 14.1693 13.5 13.2426 13.5 11.3359V5.66927C13.5 3.7626 12.5733 2.83594 10.6667 2.83594H5.33333Z" fill="#AFAFAF"/>
</svg>
