<svg width="20" height="20" viewBox="0 0 20 20" fill="none" xmlns="http://www.w3.org/2000/svg">
<path d="M9.99984 18.9557C5.05817 18.9557 1.0415 14.9391 1.0415 9.9974C1.0415 5.05573 5.05817 1.03906 9.99984 1.03906C14.9415 1.03906 18.9582 5.05573 18.9582 9.9974C18.9582 14.9391 14.9415 18.9557 9.99984 18.9557ZM9.99984 2.28906C5.74984 2.28906 2.2915 5.7474 2.2915 9.9974C2.2915 14.2474 5.74984 17.7057 9.99984 17.7057C14.2498 17.7057 17.7082 14.2474 17.7082 9.9974C17.7082 5.7474 14.2498 2.28906 9.99984 2.28906Z" fill="#B95962"/>
<path d="M13.3332 10.625H6.6665C6.32484 10.625 6.0415 10.3417 6.0415 10C6.0415 9.65833 6.32484 9.375 6.6665 9.375H13.3332C13.6748 9.375 13.9582 9.65833 13.9582 10C13.9582 10.3417 13.6748 10.625 13.3332 10.625Z" fill="#B95962"/>
<path d="M10 13.9557C9.65833 13.9557 9.375 13.6724 9.375 13.3307V6.66406C9.375 6.3224 9.65833 6.03906 10 6.03906C10.3417 6.03906 10.625 6.3224 10.625 6.66406V13.3307C10.625 13.6724 10.3417 13.9557 10 13.9557Z" fill="#B95962"/>
</svg>
