<svg width="24" height="24" viewBox="0 0 24 24" fill="none" xmlns="http://www.w3.org/2000/svg">
<path d="M15 22.75H9C3.57 22.75 1.25 20.43 1.25 15V9C1.25 3.57 3.57 1.25 9 1.25H15C20.43 1.25 22.75 3.57 22.75 9V15C22.75 20.43 20.43 22.75 15 22.75ZM9 2.75C4.39 2.75 2.75 4.39 2.75 9V15C2.75 19.61 4.39 21.25 9 21.25H15C19.61 21.25 21.25 19.61 21.25 15V9C21.25 4.39 19.61 2.75 15 2.75H9Z" fill="#434343"/>
<path d="M7.32999 15.242C7.16999 15.242 7.00999 15.192 6.86999 15.082C6.53999 14.832 6.47999 14.362 6.72999 14.032L9.10999 10.942C9.39999 10.572 9.80999 10.332 10.28 10.272C10.74 10.212 11.21 10.342 11.58 10.632L13.41 12.072C13.48 12.132 13.55 12.132 13.6 12.122C13.64 12.122 13.71 12.102 13.77 12.022L16.08 9.04196C16.33 8.71196 16.81 8.65196 17.13 8.91196C17.46 9.16196 17.52 9.63196 17.26 9.96196L14.95 12.942C14.66 13.312 14.25 13.552 13.78 13.602C13.31 13.662 12.85 13.532 12.48 13.242L10.65 11.802C10.58 11.742 10.5 11.742 10.46 11.752C10.42 11.752 10.35 11.772 10.29 11.852L7.90999 14.942C7.77999 15.142 7.55999 15.242 7.32999 15.242Z" fill="#434343"/>
</svg>
