<svg width="16" height="16" viewBox="0 0 16 16" fill="none" xmlns="http://www.w3.org/2000/svg">
<path d="M7.9987 15.1666C4.04536 15.1666 0.832031 11.9533 0.832031 7.99992C0.832031 4.04659 4.04536 0.833252 7.9987 0.833252C11.952 0.833252 15.1654 4.04659 15.1654 7.99992C15.1654 11.9533 11.952 15.1666 7.9987 15.1666ZM7.9987 1.83325C4.5987 1.83325 1.83203 4.59992 1.83203 7.99992C1.83203 11.3999 4.5987 14.1666 7.9987 14.1666C11.3987 14.1666 14.1654 11.3999 14.1654 7.99992C14.1654 4.59992 11.3987 1.83325 7.9987 1.83325Z" fill="#434343"/>
<path d="M10.6654 8.5H5.33203C5.0587 8.5 4.83203 8.27333 4.83203 8C4.83203 7.72667 5.0587 7.5 5.33203 7.5H10.6654C10.9387 7.5 11.1654 7.72667 11.1654 8C11.1654 8.27333 10.9387 8.5 10.6654 8.5Z" fill="#434343"/>
<path d="M8 11.1666C7.72667 11.1666 7.5 10.9399 7.5 10.6666V5.33325C7.5 5.05992 7.72667 4.83325 8 4.83325C8.27333 4.83325 8.5 5.05992 8.5 5.33325V10.6666C8.5 10.9399 8.27333 11.1666 8 11.1666Z" fill="#434343"/>
</svg>
