<svg width="40" height="40" viewBox="0 0 40 40" fill="none" xmlns="http://www.w3.org/2000/svg">
<mask id="mask0_3669_39296" style="mask-type:luminance" maskUnits="userSpaceOnUse" x="0" y="0" width="40" height="40">
<path d="M20 0C8.9543 0 0 8.9543 0 20C0 31.0457 8.9543 40 20 40C31.0457 40 40 31.0457 40 20C40 8.9543 31.0457 0 20 0Z" fill="white"/>
</mask>
<g mask="url(#mask0_3669_39296)">
<path d="M20 0C8.9543 0 0 8.9543 0 20C0 31.0457 8.9543 40 20 40C31.0457 40 40 31.0457 40 20C40 8.9543 31.0457 0 20 0Z" fill="#DCACB1" fill-opacity="0.5"/>
<path d="M-4 -4L-4 44L44 44L44 -4L-4 -4Z" fill="white"/>
<path d="M41.5 20C41.5 31.86 31.86 41.5 20 41.5C8.14 41.5 -1.5 31.86 -1.5 20C-1.5 8.14 8.14 -1.5 20 -1.5C31.86 -1.5 41.5 8.14 41.5 20ZM1.5 20C1.5 30.2 9.8 38.5 20 38.5C30.2 38.5 38.5 30.2 38.5 20C38.5 9.8 30.2 1.5 20 1.5C9.8 1.5 1.5 9.8 1.5 20Z" fill="#86262F"/>
<path d="M21.5 13V25C21.5 25.82 20.82 26.5 20 26.5C19.18 26.5 18.5 25.82 18.5 25V13C18.5 12.18 19.18 11.5 20 11.5C20.82 11.5 21.5 12.18 21.5 13Z" fill="#86262F"/>
<path d="M27.5009 21.0011C27.5009 21.3811 27.3609 21.7611 27.0609 22.0611L21.0609 28.0611C20.4809 28.6411 19.5209 28.6411 18.9409 28.0611L12.9409 22.0611C12.3609 21.4811 12.3609 20.5211 12.9409 19.9411C13.5209 19.3611 14.4809 19.3611 15.0609 19.9411L20.0009 24.8811L24.9409 19.9411C25.5209 19.3611 26.4809 19.3611 27.0609 19.9411C27.3609 20.2411 27.5009 20.6211 27.5009 21.0011Z" fill="#86262F"/>
</g>
</svg>
