<svg width="24" height="24" viewBox="0 0 24 24" fill="none" xmlns="http://www.w3.org/2000/svg">
<path d="M16.2813 22.1005H12.4813C11.9213 22.1005 10.7013 21.9305 10.0513 21.2805L7.02133 18.9405L7.94133 17.7505L11.0413 20.1505C11.2913 20.3905 11.9213 20.5905 12.4813 20.5905H16.2813C17.1813 20.5905 18.1513 19.8705 18.3513 19.0605L20.7713 11.7105C20.9313 11.2705 20.9013 10.8705 20.6913 10.5805C20.4713 10.2705 20.0713 10.0905 19.5813 10.0905H15.5813C15.0613 10.0905 14.5813 9.87048 14.2513 9.49048C13.9113 9.10048 13.7613 8.58048 13.8413 8.04048L14.3413 4.83048C14.4613 4.27048 14.0813 3.64048 13.5413 3.46048C13.0513 3.28048 12.4213 3.54048 12.2013 3.86048L8.10133 9.96048L6.86133 9.13048L10.9613 3.03048C11.5913 2.09048 12.9713 1.64048 14.0513 2.05048C15.3013 2.46048 16.1013 3.84048 15.8213 5.12048L15.3313 8.27048C15.3213 8.34048 15.3213 8.44048 15.3913 8.52048C15.4413 8.57048 15.5113 8.60048 15.5913 8.60048L19.5913 8.60048C20.5713 8.60048 21.4213 9.01048 21.9213 9.72048C22.4113 10.4105 22.5113 11.3205 22.1913 12.2005L19.8013 19.4805C19.4313 20.9305 17.8913 22.1005 16.2813 22.1005Z" fill="#00966D"/>
<path d="M5.38086 20.9984H4.38086C2.53086 20.9984 1.63086 20.1284 1.63086 18.3484L1.63086 8.54844C1.63086 6.76844 2.53086 5.89844 4.38086 5.89844H5.38086C7.23086 5.89844 8.13086 6.76844 8.13086 8.54844L8.13086 18.3484C8.13086 20.1284 7.23086 20.9984 5.38086 20.9984ZM4.38086 7.39844C3.29086 7.39844 3.13086 7.65844 3.13086 8.54844L3.13086 18.3484C3.13086 19.2384 3.29086 19.4984 4.38086 19.4984H5.38086C6.47086 19.4984 6.63086 19.2384 6.63086 18.3484L6.63086 8.54844C6.63086 7.65844 6.47086 7.39844 5.38086 7.39844H4.38086Z" fill="#00966D"/>
</svg>
