<svg width="24" height="24" viewBox="0 0 24 24" fill="none" xmlns="http://www.w3.org/2000/svg">
<path d="M15 22.75H9C3.57 22.75 1.25 20.43 1.25 15V9C1.25 3.57 3.57 1.25 9 1.25H15C20.43 1.25 22.75 3.57 22.75 9V15C22.75 20.43 20.43 22.75 15 22.75ZM9 2.75C4.39 2.75 2.75 4.39 2.75 9V15C2.75 19.61 4.39 21.25 9 21.25H15C19.61 21.25 21.25 19.61 21.25 15V9C21.25 4.39 19.61 2.75 15 2.75H9Z" fill="#434343"/>
<path d="M7.33011 15.242C7.17011 15.242 7.01011 15.192 6.87011 15.082C6.54011 14.832 6.48011 14.362 6.73011 14.032L9.11011 10.942C9.40011 10.572 9.81011 10.332 10.2801 10.272C10.7401 10.212 11.2101 10.342 11.5801 10.632L13.4101 12.072C13.4801 12.132 13.5501 12.132 13.6001 12.122C13.6401 12.122 13.7101 12.102 13.7701 12.022L16.0801 9.04196C16.3301 8.71196 16.8101 8.65196 17.1301 8.91196C17.4601 9.16196 17.5201 9.63196 17.2601 9.96196L14.9501 12.942C14.6601 13.312 14.2501 13.552 13.7801 13.602C13.3101 13.662 12.8501 13.532 12.4801 13.242L10.6501 11.802C10.5801 11.742 10.5001 11.742 10.4601 11.752C10.4201 11.752 10.3501 11.772 10.2901 11.852L7.91011 14.942C7.78011 15.142 7.56011 15.242 7.33011 15.242Z" fill="#434343"/>
</svg>
