<svg width="40" height="40" viewBox="0 0 40 40" fill="none" xmlns="http://www.w3.org/2000/svg">
<g clip-path="url(#clip0_3981_14164)">
<rect width="40" height="40" rx="20" fill="#DCACB1" fill-opacity="0.5"/>
<rect width="48" height="48" transform="translate(-4 -4)" fill="white"/>
<path d="M20 41.5C8.14 41.5 -1.5 31.86 -1.5 20C-1.5 8.14 8.14 -1.5 20 -1.5C31.86 -1.5 41.5 8.14 41.5 20C41.5 31.86 31.86 41.5 20 41.5ZM20 1.5C9.8 1.5 1.5 9.8 1.5 20C1.5 30.2 9.8 38.5 20 38.5C30.2 38.5 38.5 30.2 38.5 20C38.5 9.8 30.2 1.5 20 1.5Z" fill="#86262F"/>
<path d="M27 21.5H15C14.18 21.5 13.5 20.82 13.5 20C13.5 19.18 14.18 18.5 15 18.5H27C27.82 18.5 28.5 19.18 28.5 20C28.5 20.82 27.82 21.5 27 21.5Z" fill="#86262F"/>
<path d="M18.9999 27.5028C18.6199 27.5028 18.2399 27.3628 17.9399 27.0628L11.9399 21.0628C11.3599 20.4828 11.3599 19.5228 11.9399 18.9428L17.9399 12.9428C18.5199 12.3628 19.4799 12.3628 20.0599 12.9428C20.6399 13.5228 20.6399 14.4828 20.0599 15.0628L15.1199 20.0028L20.0599 24.9428C20.6399 25.5228 20.6399 26.4828 20.0599 27.0628C19.7599 27.3628 19.3799 27.5028 18.9999 27.5028Z" fill="#86262F"/>
</g>
<defs>
<clipPath id="clip0_3981_14164">
<rect width="40" height="40" rx="20" fill="white"/>
</clipPath>
</defs>
</svg>
