<svg width="25" height="24" viewBox="0 0 25 24" fill="none" xmlns="http://www.w3.org/2000/svg">
<path d="M10.9299 18.3699C10.7799 18.3699 10.6399 18.3299 10.5099 18.2399C10.2999 18.0999 10.1799 17.8699 10.1799 17.6199C10.1799 17.4699 10.1699 17.3099 10.1499 17.1499C10.0599 16.4399 9.73991 15.8199 9.19991 15.2799C8.65991 14.7399 7.98991 14.3999 7.26991 14.3099C7.14991 14.2999 6.97991 14.2899 6.81991 14.2999C6.55991 14.3199 6.31991 14.2099 6.16991 13.9999C6.01991 13.7999 5.97991 13.5299 6.05991 13.2899C6.20991 12.8799 6.42991 12.5099 6.68991 12.2099L8.22991 10.2699C10.8799 6.95992 16.2499 2.97992 20.1799 1.39992C21.0199 1.07992 21.8999 1.26992 22.5099 1.86992C23.1399 2.49992 23.3299 3.39992 22.9999 4.21992C21.4199 8.15992 17.4499 13.5199 14.1399 16.1699L12.1699 17.7499C11.7999 18.0199 11.4999 18.1899 11.1999 18.3099C11.1199 18.3499 11.0199 18.3699 10.9299 18.3699ZM8.03991 12.9399C8.87991 13.1599 9.62991 13.5999 10.2599 14.2299C10.8899 14.8499 11.3099 15.5699 11.5199 16.3699L13.2099 15.0099C16.3499 12.4999 20.1199 7.40992 21.6099 3.66992C21.7599 3.29992 21.5499 3.03992 21.4499 2.94992C21.3799 2.87992 21.1199 2.65992 20.7199 2.80992C16.9999 4.30992 11.9099 8.07992 9.38991 11.2199L8.03991 12.9399Z" fill="#CBCBCB"/>
<path d="M4.58035 22.7501C3.83035 22.7501 3.11035 22.4501 2.57035 21.9101C1.95035 21.2901 1.65035 20.4301 1.75035 19.5501L2.02035 17.0901C2.28035 14.6501 4.28035 12.8401 6.76035 12.7901C6.95036 12.7801 7.20035 12.7901 7.43035 12.8101C8.52035 12.9501 9.49036 13.4401 10.2704 14.2201C11.0404 14.9901 11.5004 15.9101 11.6404 16.9401C11.6704 17.1601 11.6904 17.4001 11.6904 17.6101C11.6904 18.9301 11.1804 20.1601 10.2604 21.0901C9.49036 21.8501 8.50035 22.3201 7.38035 22.4601L4.91035 22.7301C4.80035 22.7401 4.69035 22.7501 4.58035 22.7501ZM6.95035 14.3001C6.91035 14.3001 6.86035 14.3001 6.82035 14.3001C5.31035 14.3301 3.71035 15.3601 3.51035 17.2601L3.24035 19.7201C3.19035 20.1401 3.34035 20.5501 3.63035 20.8501C3.92035 21.1401 4.33035 21.2901 4.74035 21.2401L7.20035 20.9701C7.97035 20.8701 8.66036 20.5501 9.18036 20.0301C9.82036 19.3901 10.1804 18.5301 10.1804 17.6101C10.1804 17.4601 10.1704 17.3001 10.1504 17.1401C10.0604 16.4301 9.74035 15.8101 9.20035 15.2701C8.66035 14.7301 7.99035 14.3901 7.27035 14.3001C7.19035 14.3001 7.07035 14.3001 6.95035 14.3001Z" fill="#CBCBCB"/>
<path d="M14.7398 15.22C14.3298 15.22 13.9898 14.88 13.9898 14.47C13.9898 12.27 12.1998 10.49 10.0098 10.49C9.59977 10.49 9.25977 10.15 9.25977 9.73999C9.25977 9.32999 9.58977 8.98999 9.99977 8.98999C13.0198 8.98999 15.4798 11.45 15.4798 14.47C15.4898 14.89 15.1498 15.22 14.7398 15.22Z" fill="#CBCBCB"/>
<path d="M16.1804 22.7297C15.2504 22.7297 14.3204 22.2897 13.4304 21.3997C13.1404 21.1097 13.1404 20.6297 13.4304 20.3397C13.7204 20.0497 14.2004 20.0497 14.4904 20.3397C15.6704 21.5197 16.6804 21.5197 17.8604 20.3397L20.8204 17.3797C22.0104 16.1897 22.0104 15.1797 20.8204 13.9997L20.0804 13.2697C19.7904 12.9797 19.7804 12.4997 20.0704 12.2097C20.3604 11.9097 20.8404 11.9097 21.1304 12.1997L21.8704 12.9297C23.6504 14.7097 23.6504 16.6597 21.8704 18.4397L18.9104 21.3997C18.0404 22.2797 17.1104 22.7297 16.1804 22.7297Z" fill="#CBCBCB"/>
<path d="M3.60977 11.26C3.41977 11.26 3.21977 11.19 3.07977 11.04C1.31977 9.27001 1.31977 7.31001 3.07977 5.54001L6.03977 2.58001C7.79977 0.82001 9.77977 0.82001 11.5398 2.58001L12.2798 3.32001C12.5698 3.61001 12.5698 4.09001 12.2798 4.38001C11.9898 4.67001 11.5098 4.67001 11.2198 4.38001L10.4698 3.64001C9.28977 2.46001 8.26977 2.46001 7.09977 3.64001L4.13977 6.60001C2.95977 7.79001 2.95977 8.80001 4.13977 9.99001C4.42977 10.28 4.42977 10.76 4.13977 11.05C3.98977 11.19 3.79977 11.26 3.60977 11.26Z" fill="#CBCBCB"/>
<path d="M8.05023 8.30004C7.86023 8.30004 7.67023 8.23004 7.52023 8.08004C7.23023 7.79004 7.23023 7.31004 7.52023 7.02004L11.2202 3.32004C11.5102 3.03004 11.9902 3.03004 12.2802 3.32004C12.5702 3.61004 12.5702 4.09004 12.2802 4.38004L8.58023 8.08004C8.43023 8.23004 8.24023 8.30004 8.05023 8.30004Z" fill="#CBCBCB"/>
<path d="M17.6596 16.4299C17.4696 16.4299 17.2796 16.3599 17.1296 16.2099C16.8396 15.9199 16.8396 15.4399 17.1296 15.1499L20.0896 12.1899C20.3796 11.8999 20.8596 11.8999 21.1496 12.1899C21.4396 12.4799 21.4396 12.9599 21.1496 13.2499L18.1896 16.2099C18.0496 16.3599 17.8596 16.4299 17.6596 16.4299Z" fill="#CBCBCB"/>
</svg>
