<svg width="336" height="328" viewBox="0 0 336 328" fill="none" xmlns="http://www.w3.org/2000/svg">
<path d="M169.204 0.121924C85.3303 -2.42515 12.6785 60.16 1.70196 142.28C-10.2992 232.066 55.7537 312.853 137.029 325.792C238.122 341.886 336.176 248.779 327.372 147.773C320.738 71.6732 254.462 2.71091 169.204 0.121924Z" fill="#F4F7FA"/>
<mask id="mask0_4140_14415" style="mask-type:luminance" maskUnits="userSpaceOnUse" x="27" y="0" width="195" height="154">
<path d="M57.4653 74.5242C67.6599 54.5927 82.801 30.9139 96.2118 54.7211C109.622 78.5282 146.648 55.8775 158.473 21.3154C170.044 -12.506 236.843 -11.4521 218.519 64.0499C207.576 109.139 162.407 111.155 139.839 117.595C117.27 124.036 121.981 158.543 91.6775 152.288C65.7926 146.946 44.6556 131.365 30.9901 149.025C17.3247 166.685 50.7053 87.7407 57.4653 74.5242Z" fill="white"/>
</mask>
<g mask="url(#mask0_4140_14415)">
<path d="M158.473 21.3155C146.648 55.8775 113.617 78.7062 96.2118 57.6428C80.8281 39.0264 67.6599 54.5927 57.4653 74.5242C51.4252 86.3331 41.8625 114.112 13.7251 108.713C13.7529 109.171 13.7043 109.647 13.5671 110.146C12.8074 128.126 11.3968 146.069 10.4619 164.039C18.3587 161.917 25.0945 156.644 30.9899 149.025C44.6554 131.365 65.7924 146.946 91.6774 152.288C121.981 158.543 117.27 124.036 139.838 117.595C162.406 111.155 207.576 109.139 218.519 64.0498C236.843 -11.4522 170.044 -12.5061 158.473 21.3155Z" fill="#ED2E2E"/>
</g>
<mask id="mask1_4140_14415" style="mask-type:luminance" maskUnits="userSpaceOnUse" x="27" y="0" width="195" height="154">
<path d="M57.4653 74.5242C67.6599 54.5927 82.801 30.9139 96.2118 54.7211C109.622 78.5282 146.648 55.8775 158.473 21.3154C170.044 -12.506 236.843 -11.4521 218.519 64.0499C207.576 109.139 162.407 111.155 139.839 117.595C117.27 124.036 121.981 158.543 91.6775 152.288C65.7926 146.946 44.6556 131.365 30.9901 149.025C17.3247 166.685 50.7053 87.7407 57.4653 74.5242Z" fill="white"/>
</mask>
<g mask="url(#mask1_4140_14415)">
<g opacity="0.5">
<path d="M198.467 -10.3359C198.372 63.471 134.872 99.0484 81.6182 115.897C57.227 123.614 32.7032 128.217 12.4575 130.959C12.438 131.279 12.4194 131.599 12.3999 131.919C32.7225 129.173 57.3688 124.558 81.8851 116.803C115.942 106.03 143.091 91.3956 162.58 73.306C186.978 50.6612 199.369 22.5205 199.411 -10.335L198.467 -10.3359Z" fill="white"/>
<path d="M151.977 82.3319L151.914 81.3896C183.271 79.2732 224.506 59.1869 224.919 58.9844L225.335 59.8318C224.92 60.0352 183.518 80.203 151.977 82.3319Z" fill="white"/>
<path d="M167.819 66.7912C181.22 31.8194 166.246 4.46873 166.093 4.19684L166.916 3.73438C167.071 4.01044 182.266 31.7284 168.701 67.129L167.819 66.7912Z" fill="white"/>
<path d="M43.1763 125.795C84.8769 106.967 84.0864 45.446 84.0286 44.8473L84.9597 44.6953C85.072 45.2775 85.6357 107.661 43.5647 126.656L43.1763 125.795Z" fill="white"/>
<path d="M61.7524 122.492L61.7657 121.547C90.9593 121.95 116.163 148.653 116.415 148.923L115.724 149.566C115.475 149.299 90.5385 122.888 61.7524 122.492Z" fill="white"/>
<path d="M26.3324 156.306C23.5136 153.709 18.0532 148.68 11.6427 144.023C11.6194 144.394 11.596 144.765 11.5728 145.136C17.7244 149.66 22.9622 154.485 25.6928 157C26.9025 158.115 27.4024 158.572 27.627 158.706L28.1092 157.894C27.9513 157.797 27.2015 157.106 26.3324 156.306Z" fill="white"/>
</g>
</g>
<path d="M149.063 105.122C142.256 97.6334 132.467 98.3255 125.461 99.9359C125.124 100.848 124.697 101.286 124.153 102.127C119.251 109.721 118.778 114.005 115.127 122.252C114.341 124.028 113.62 129.94 113.48 132.374L113.292 136.917C113.292 136.917 130.952 152.103 140.649 143.067C150.347 134.03 168.949 146.326 179.607 151.625C186.151 154.879 190.187 154.271 192.783 155.08C220.271 163.651 225.175 174.765 235.825 172.061C247.582 169.076 244.972 154.677 257.59 150.755C271.839 146.325 284.734 161.711 297.282 154.506C299.433 153.271 301.61 151.943 303.602 149.301C308.519 142.78 306.496 135.21 314.503 132.255C330.598 126.317 341.326 110.587 332.586 95.2184C323.961 80.0505 294.796 82.7839 263.708 105.976C239.719 119.949 234.657 118.312 223.203 111.93C215.18 107.459 196.39 90.0242 183.088 98.9802C169.786 107.936 156.844 113.682 149.063 105.122Z" fill="#8BD4FE"/>
<mask id="mask2_4140_14415" style="mask-type:luminance" maskUnits="userSpaceOnUse" x="112" y="85" width="224" height="72">
<path d="M116.669 102.643L112.803 135.946C112.803 135.946 130.952 152.103 140.649 143.067C150.347 134.03 168.949 146.326 179.607 151.625C208.523 166.003 218.567 129.908 257.18 145.151C267.45 149.206 285.682 160.666 297.282 154.506C310.497 147.489 304.206 136.055 314.503 132.255C330.598 126.317 341.326 110.587 332.586 95.2184C323.961 80.0504 294.796 82.784 263.708 105.976C239.718 119.949 234.657 118.312 223.203 111.93C215.18 107.459 196.389 90.0242 183.088 98.9801C169.786 107.936 156.845 113.682 149.063 105.122C137.222 92.0957 116.669 102.643 116.669 102.643Z" fill="white"/>
</mask>
<g mask="url(#mask2_4140_14415)">
<g opacity="0.5">
<path d="M116.42 117.718L116.266 118.364C119.827 119.249 123.43 120.093 126.975 120.874C153.219 126.654 179.083 129.577 203.846 129.56C224.829 129.546 245.318 127.427 264.744 123.262C280.366 119.912 295.388 115.226 309.394 109.335C319.24 105.194 328.485 100.504 336.872 95.3951C338.334 94.5052 339.785 93.5084 341.188 92.5444C343.058 91.2601 344.991 89.9319 346.965 88.8466L346.695 88.2578C344.694 89.358 342.748 90.695 340.866 91.9881C339.47 92.9474 338.026 93.9391 336.579 94.8202C328.218 99.9127 319 104.589 309.182 108.718C295.212 114.595 280.225 119.269 264.639 122.611C245.253 126.768 224.805 128.883 203.862 128.897C179.141 128.914 153.319 125.995 127.114 120.224C123.575 119.444 119.977 118.601 116.42 117.718Z" fill="white"/>
<path d="M240.839 126.634L240.877 127.295C267.322 124.764 304.897 151.058 305.274 151.324L305.623 150.767C305.244 150.5 267.495 124.083 240.839 126.634Z" fill="white"/>
<path d="M166.46 126.759L166.426 127.422C184.529 127.957 208.712 100.342 208.954 100.063L208.508 99.6172C208.267 99.894 184.28 127.286 166.46 126.759Z" fill="white"/>
<path d="M156.237 125.5L156.095 126.149C167.612 128.742 181.863 138.929 196.222 154.834C196.944 155.634 196.944 155.634 197.058 155.662L197.208 155.014L197.133 155.338L197.314 155.065C197.26 155.018 196.987 154.716 196.671 154.366C182.229 138.37 167.87 128.118 156.237 125.5Z" fill="white"/>
<path d="M122.943 119.231L122.979 119.892C135.991 118.703 147.23 101.479 147.342 101.305L146.838 100.938C146.727 101.109 135.658 118.069 122.943 119.231Z" fill="white"/>
<path d="M116.032 118.643C124.708 124.766 131.965 133.814 138.216 146.305L138.762 145.979C132.462 133.392 125.141 124.268 116.38 118.086L116.032 118.643Z" fill="white"/>
<path d="M300.884 112.046L300.957 112.702C315.609 110.416 331.404 111.651 336.594 112.057C337.85 112.156 338.292 112.189 338.449 112.171L338.402 111.511C338.282 111.523 337.564 111.467 336.655 111.395C331.448 110.988 315.603 109.749 300.884 112.046Z" fill="white"/>
<path d="M277.479 119.536L277.729 120.135C290.38 113.754 300.267 85.7054 300.682 84.5144L300.104 84.2969C300.003 84.5857 289.894 113.274 277.479 119.536Z" fill="white"/>
</g>
</g>
<path d="M317.598 28.3003C306.762 -9.59715 248.546 10.4218 225.302 48.8477C218.558 59.9955 212.976 65.6429 207.979 67.9269C192.874 73.7049 182.413 80.8342 175.653 86.2756C156.044 102.06 152.431 115.83 134.038 125.99C122.42 132.407 110.964 134.037 103.228 134.432C103.41 136.12 103.381 137.875 103.092 139.691C102.576 142.931 102.06 146.172 101.544 149.412C108.231 153.597 115.309 156.302 119.99 147.079C127.259 132.757 152.57 137.699 160.683 143.752C170.724 151.243 194.447 168.175 206.012 146.217C215.64 127.938 218.343 114.091 242.277 117.705C266.212 121.32 283.658 110.721 286.702 87.6517C289.906 63.375 323.816 50.0499 317.598 28.3003Z" fill="#FEC52C"/>
<mask id="mask3_4140_14415" style="mask-type:luminance" maskUnits="userSpaceOnUse" x="96" y="8" width="223" height="150">
<path d="M96.2119 146.439C102.618 150.893 114.761 157.381 119.99 147.079C127.259 132.757 152.57 137.699 160.683 143.751C170.724 151.243 194.447 168.174 206.012 146.217C215.64 127.938 218.343 114.091 242.277 117.705C266.212 121.32 283.657 110.721 286.702 87.6516C289.906 63.375 323.816 50.0502 317.597 28.3004C306.762 -9.59721 248.546 10.4217 225.302 48.8477C202.057 87.2738 96.2119 146.439 96.2119 146.439Z" fill="white"/>
</mask>
<g mask="url(#mask3_4140_14415)">
<g opacity="0.5">
<path d="M218.878 93.5859C200.385 102.749 180.908 109.736 160.963 114.265C159.624 114.967 158.275 115.651 156.918 116.319C179.045 111.696 200.65 104.064 221.034 93.7829C220.316 93.704 219.597 93.6382 218.878 93.5859Z" fill="white"/>
<path d="M315.337 12.5547C293.176 43.0798 264.341 68.3188 231.895 86.6836C232.117 86.909 232.346 87.1288 232.565 87.3563C232.602 87.3946 232.657 87.4506 232.721 87.5159C265.174 69.0885 294.016 43.8078 316.198 13.2525L315.337 12.5547Z" fill="white"/>
<path d="M155.801 116.867C155.262 117.128 154.721 117.384 154.181 117.64C183.764 124.856 201.592 156.36 201.772 156.684L202.712 156.093C202.533 155.769 185.024 124.812 155.801 116.867Z" fill="white"/>
<path d="M169.435 53.3508C169.82 52.0137 170.021 51.2397 170.038 51.1743L168.986 50.8828C168.969 50.9511 168.748 51.8005 168.329 53.2507C168.698 53.2817 169.067 53.3141 169.435 53.3508Z" fill="white"/>
<path d="M233.833 88.6918C234.141 89.0267 234.48 89.4068 234.833 89.8196C257.863 89.5078 283.431 107.882 283.717 108.089L284.339 107.137C284.047 106.924 257.491 87.8395 233.833 88.6918Z" fill="white"/>
<path d="M269.691 60.9267L270.486 61.7079C290.081 39.3475 289.511 -1.67351 289.502 -2.08594L288.413 -2.05203C288.422 -1.64485 288.981 38.915 269.691 60.9267Z" fill="white"/>
</g>
</g>
<path d="M296.19 278.306L25.3769 302.752C21.3344 303.082 15.5342 297.736 15.5342 293.68V88.6402C15.5342 84.8443 18.5835 81.7526 22.3789 81.7001L295.53 77.9226C299.4 77.8691 306.716 80.7225 306.716 84.5934L302.566 271.388C302.566 275.002 299.793 278.012 296.19 278.306Z" fill="url(#paint0_linear_4140_14415)"/>
<path d="M301.692 280.204L28.541 302.496C24.4984 302.826 21.0356 299.634 21.0356 295.578V90.5385C21.0356 86.7427 24.0849 83.6509 27.8804 83.5984L301.031 79.821C304.901 79.7675 308.068 82.8902 308.068 86.761V273.286C308.068 276.901 305.294 279.91 301.692 280.204Z" fill="url(#paint1_linear_4140_14415)"/>
<path d="M52.6751 294.174L284.042 275.75C287.735 275.456 290.583 272.373 290.583 268.667V91.6991C290.583 87.7323 287.335 84.5337 283.368 84.5946L52.0022 88.1467C48.121 88.2063 45.0059 91.3695 45.0059 95.2512V287.091C45.0059 291.237 48.5417 294.503 52.6751 294.174Z" fill="url(#paint2_linear_4140_14415)"/>
<path d="M300.247 186.097C298.91 186.097 297.827 185.014 297.827 183.677V165.74C297.827 164.403 298.911 163.32 300.247 163.32C301.583 163.32 302.666 164.404 302.666 165.74V183.677C302.666 185.014 301.583 186.097 300.247 186.097Z" fill="url(#paint3_linear_4140_14415)"/>
<path opacity="0.9" d="M249.737 236.32C228.665 217.941 211.774 225.131 189.483 206.456C161.815 183.275 175.592 161.899 151.235 141.487C120.777 115.961 83.9737 136.666 61.1171 111.098C55.1352 104.407 51.8049 96.4393 50.0565 88.4531C47.1315 89.3361 45.0059 92.0462 45.0059 95.2509V287.091C45.0059 291.237 48.5417 294.503 52.6751 294.173L274.226 276.531C270.176 262.784 262.961 247.855 249.737 236.32Z" fill="white"/>
<g opacity="0.3">
<path d="M258.339 178.157L78.3467 184.933C75.2943 185.048 72.8145 182.839 72.8145 180.002V167.958C72.8145 165.136 75.2841 162.78 78.324 162.692L257.63 157.518C260.248 157.442 262.441 159.493 262.533 162.101L262.925 173.23C263.017 175.851 260.966 178.058 258.339 178.157Z" fill="#97A6B7"/>
<path d="M85.6035 189.196L101.923 248.869C102.962 252.671 106.631 255.146 110.81 254.869L232.034 246.853C235.805 246.604 239.004 243.823 239.804 240.114L252.192 182.625L85.6035 189.196ZM131.843 243.726C131.869 246.128 129.86 248.206 127.352 248.366L123.014 248.644C120.492 248.805 118.427 246.977 118.407 244.562L118.018 197.927C117.998 195.555 120.011 193.549 122.507 193.445L126.803 193.266C129.286 193.162 131.317 194.989 131.342 197.348L131.843 243.726ZM155.75 242.24C155.786 244.617 153.824 246.674 151.365 246.831L147.11 247.103C144.637 247.261 142.603 245.45 142.573 243.059L141.983 196.885C141.953 194.537 143.919 192.551 146.368 192.449L150.581 192.273C153.017 192.171 155.018 193.981 155.053 196.317L155.75 242.24ZM179.2 240.781C179.246 243.136 177.33 245.171 174.917 245.325L170.744 245.592C168.318 245.747 166.314 243.952 166.274 241.585L165.492 195.864C165.452 193.538 167.372 191.573 169.775 191.472L173.909 191.3C176.298 191.2 178.27 192.993 178.315 195.306L179.2 240.781ZM202.206 239.351C202.262 241.682 200.39 243.696 198.023 243.847L193.928 244.109C191.549 244.261 189.574 242.483 189.524 240.139L188.557 194.861C188.508 192.558 190.384 190.612 192.741 190.514L196.797 190.344C199.143 190.247 201.085 192.023 201.139 194.314L202.206 239.351ZM224.781 237.947C224.845 240.256 223.017 242.249 220.694 242.398L216.676 242.655C214.341 242.804 212.396 241.042 212.336 238.721L211.191 193.878C211.133 191.596 212.965 189.67 215.279 189.573L219.26 189.407C221.562 189.311 223.477 191.071 223.54 193.341L224.781 237.947Z" fill="#97A6B7"/>
<path d="M158.968 103.74C158.063 102.776 156.226 102.92 154.864 104.063L98.1769 151.637C96.7231 152.857 96.3121 154.649 97.2608 155.637C98.209 156.624 100.155 156.432 101.605 155.21L158.147 107.555C159.506 106.41 159.872 104.703 158.968 103.74Z" fill="#97A6B7"/>
<path d="M181.32 103.52C182.182 102.555 184.005 102.688 185.39 103.815L240.42 148.58C241.766 149.676 242.195 151.354 241.378 152.331C240.559 153.308 238.801 153.213 237.451 152.117L182.272 107.313C180.882 106.185 180.456 104.486 181.32 103.52Z" fill="#97A6B7"/>
</g>
<path d="M219.613 182.345C217.177 208.672 193.858 229.469 167.447 228.795C140.946 228.118 121.382 206.095 123.833 179.606C126.284 153.117 149.809 132.326 176.295 133.165C202.691 134.002 222.049 156.019 219.613 182.345Z" fill="url(#paint4_linear_4140_14415)"/>
<path d="M172.346 211.232C155.662 211.232 142.089 197.659 142.089 180.975C142.089 164.292 155.662 150.719 172.346 150.719C189.029 150.719 202.603 164.292 202.603 180.975C202.603 197.659 189.029 211.232 172.346 211.232ZM172.346 161.848C161.799 161.848 153.218 170.429 153.218 180.975C153.218 191.522 161.799 200.103 172.346 200.103C182.892 200.103 191.473 191.522 191.473 180.975C191.473 170.428 182.892 161.848 172.346 161.848Z" fill="white"/>
<path d="M158.35 201.881C156.931 201.881 155.513 201.342 154.427 200.263C152.247 198.096 152.237 194.572 154.404 192.393L184.609 162.009C186.777 159.829 190.3 159.819 192.479 161.985C194.659 164.152 194.669 167.676 192.502 169.855L162.297 200.239C161.209 201.334 159.78 201.881 158.35 201.881Z" fill="white"/>
<g opacity="0.2">
<path d="M167.771 216.117C164.301 209.977 171.322 204.926 171.609 192.682C172.044 174.088 156.283 167.347 158.396 151.663C158.983 147.302 161.15 140.78 169.282 133.453C145.775 136.092 126.065 155.486 123.833 179.609C121.382 206.098 140.946 228.122 167.447 228.798C176.482 229.029 185.154 226.745 192.753 222.589C182.863 223.256 171.442 222.615 167.771 216.117Z" fill="url(#paint5_linear_4140_14415)"/>
</g>
<path d="M259.573 289.262C233.075 288.983 231.691 290.923 231.492 291.814C230.579 295.905 248.352 305.97 267.232 307.642C278.398 308.631 287.61 306.429 306.035 302.026C318.32 299.09 324.463 297.622 324.415 295.899C324.28 291.028 279.313 289.469 259.573 289.262Z" fill="#D8DEE8"/>
<path d="M269.706 293.444C267.291 293.934 261.365 286.018 263.031 279.489C264.862 272.309 274.243 273.21 277.195 265.381C279.606 258.987 274.295 256.137 276.013 247.413C277.179 241.491 281.254 235.368 286.855 232.241C294.179 228.153 299.066 232.004 303.823 227.719C309.42 222.676 306.647 213.741 308.809 213.327C311.952 212.725 322.242 230.753 316.336 239.429C311.372 246.723 299.267 241.085 293.146 249.219C287.999 256.059 294.652 262.579 288.936 270.649C284.23 277.293 277.159 275.591 273.014 283.337C270.184 288.624 271.445 293.092 269.706 293.444Z" fill="#96D9C9"/>
<mask id="mask4_4140_14415" style="mask-type:luminance" maskUnits="userSpaceOnUse" x="262" y="213" width="57" height="81">
<path d="M269.706 293.444C267.291 293.934 261.365 286.018 263.031 279.489C264.862 272.309 274.243 273.21 277.195 265.381C279.606 258.987 274.295 256.137 276.013 247.413C277.179 241.491 281.254 235.368 286.855 232.241C294.179 228.153 299.066 232.004 303.823 227.719C309.42 222.676 306.647 213.741 308.809 213.327C311.952 212.725 322.242 230.753 316.336 239.429C311.372 246.723 299.267 241.085 293.146 249.219C287.999 256.059 294.652 262.579 288.936 270.649C284.23 277.293 277.159 275.591 273.014 283.337C270.184 288.624 271.445 293.092 269.706 293.444Z" fill="white"/>
</mask>
<g mask="url(#mask4_4140_14415)">
<path opacity="0.5" d="M270.833 283.924L270.692 283.773C277.731 277.175 282.121 269.872 283.741 262.067C284.652 257.678 284.525 254.05 284.413 250.849C284.267 246.67 284.151 243.369 286.765 240.935C289.346 238.533 292.674 238.648 296.197 238.769C300.046 238.902 304.026 239.039 307.395 235.893C310.741 232.768 311.418 228.253 311.707 226.325C312.803 219.011 309.436 213.177 307.938 211.008L308.108 210.891C309.621 213.08 313.019 218.968 311.911 226.356C311.619 228.305 310.935 232.87 307.536 236.045C304.104 239.249 300.081 239.11 296.19 238.976C292.711 238.856 289.424 238.743 286.907 241.087C284.362 243.457 284.47 246.554 284.62 250.841C284.732 254.054 284.86 257.696 283.944 262.109C282.315 269.957 277.904 277.296 270.833 283.924Z" fill="white"/>
</g>
<mask id="mask5_4140_14415" style="mask-type:luminance" maskUnits="userSpaceOnUse" x="262" y="213" width="57" height="81">
<path d="M269.706 293.444C267.291 293.934 261.365 286.018 263.031 279.489C264.862 272.309 274.243 273.21 277.195 265.381C279.606 258.987 274.295 256.137 276.013 247.413C277.179 241.491 281.254 235.368 286.855 232.241C294.179 228.153 299.066 232.004 303.823 227.719C309.42 222.676 306.647 213.741 308.809 213.327C311.952 212.725 322.242 230.753 316.336 239.429C311.372 246.723 299.267 241.085 293.146 249.219C287.999 256.059 294.652 262.579 288.936 270.649C284.23 277.293 277.159 275.591 273.014 283.337C270.184 288.624 271.445 293.092 269.706 293.444Z" fill="white"/>
</mask>
<g mask="url(#mask5_4140_14415)">
<path opacity="0.5" d="M307.277 237.841C306.714 237.659 306.255 237.369 305.972 236.929C305.346 235.956 305.934 234.783 306.615 233.425C307.338 231.982 308.158 230.347 307.969 228.368C307.709 225.637 305.567 223.002 301.603 220.535L301.712 220.359C305.735 222.862 307.909 225.55 308.176 228.348C308.37 230.387 307.499 232.123 306.8 233.518C306.121 234.873 305.584 235.943 306.146 236.817C307.237 238.513 311.311 237.799 313.269 237.455C317.794 236.662 322.065 234.643 325.963 231.455L326.094 231.615C322.168 234.826 317.865 236.86 313.305 237.659C311.789 237.925 309.032 238.409 307.277 237.841Z" fill="white"/>
</g>
<mask id="mask6_4140_14415" style="mask-type:luminance" maskUnits="userSpaceOnUse" x="262" y="213" width="57" height="81">
<path d="M269.706 293.444C267.291 293.934 261.365 286.018 263.031 279.489C264.862 272.309 274.243 273.21 277.195 265.381C279.606 258.987 274.295 256.137 276.013 247.413C277.179 241.491 281.254 235.368 286.855 232.241C294.179 228.153 299.066 232.004 303.823 227.719C309.42 222.676 306.647 213.741 308.809 213.327C311.952 212.725 322.242 230.753 316.336 239.429C311.372 246.723 299.267 241.085 293.146 249.219C287.999 256.059 294.652 262.579 288.936 270.649C284.23 277.293 277.159 275.591 273.014 283.337C270.184 288.624 271.445 293.092 269.706 293.444Z" fill="white"/>
</mask>
<g mask="url(#mask6_4140_14415)">
<path opacity="0.5" d="M284.429 249.125L284.381 249.066C283.228 247.659 282.57 246.171 282.425 244.644C282.129 241.541 284.016 238.951 285.68 236.667C287.218 234.555 288.546 232.732 287.913 230.963C287.555 229.963 286.602 229.146 285.08 228.536L285.157 228.344C286.736 228.977 287.729 229.835 288.108 230.893C288.778 232.765 287.42 234.63 285.847 236.789C284.205 239.044 282.343 241.6 282.631 244.625C282.77 246.088 283.397 247.519 284.494 248.877C286.487 248.087 288.553 247.676 290.633 247.654C297.12 247.587 301.826 251.386 303.548 253.023L303.405 253.173C301.702 251.554 297.047 247.795 290.635 247.861C288.556 247.883 286.491 248.299 284.5 249.097L284.429 249.125Z" fill="white"/>
</g>
<mask id="mask7_4140_14415" style="mask-type:luminance" maskUnits="userSpaceOnUse" x="262" y="213" width="57" height="81">
<path d="M269.706 293.444C267.291 293.934 261.365 286.018 263.031 279.489C264.862 272.309 274.243 273.21 277.195 265.381C279.606 258.987 274.295 256.137 276.013 247.413C277.179 241.491 281.254 235.368 286.855 232.241C294.179 228.153 299.066 232.004 303.823 227.719C309.42 222.676 306.647 213.741 308.809 213.327C311.952 212.725 322.242 230.753 316.336 239.429C311.372 246.723 299.267 241.085 293.146 249.219C287.999 256.059 294.652 262.579 288.936 270.649C284.23 277.293 277.159 275.591 273.014 283.337C270.184 288.624 271.445 293.092 269.706 293.444Z" fill="white"/>
</mask>
<g mask="url(#mask7_4140_14415)">
<path opacity="0.5" d="M281.466 269.632L281.43 269.597C281.252 269.42 263.65 251.947 262.851 251.397L262.968 251.227C263.772 251.779 280.417 268.299 281.54 269.414L308.805 266.035L308.831 266.241L281.466 269.632Z" fill="white"/>
</g>
<path d="M269.766 299.076C268.263 298.542 266.109 297.606 263.84 295.951C261.456 294.211 259.175 292.547 258.303 289.755C257.296 286.53 259.302 285.517 258.293 282.563C257.147 279.205 254.105 279.548 252.918 276.059C252.113 273.691 252.803 271.443 253.414 269.456C254.146 267.073 255.811 263.648 256.899 263.87C258.189 264.132 256.457 269.07 259.391 272.475C261.614 275.053 264.196 274.066 266.394 277.076C266.692 277.484 268.35 279.756 267.989 282.471C267.545 285.798 264.891 286.681 264.26 289.438C263.809 291.406 264.546 294.433 269.766 299.076Z" fill="#3C8F7C"/>
<mask id="mask8_4140_14415" style="mask-type:luminance" maskUnits="userSpaceOnUse" x="252" y="263" width="18" height="37">
<path d="M269.766 299.076C268.263 298.542 266.109 297.606 263.84 295.951C261.456 294.211 259.175 292.547 258.303 289.755C257.296 286.53 259.302 285.517 258.293 282.563C257.147 279.205 254.105 279.548 252.918 276.059C252.113 273.691 252.803 271.443 253.414 269.456C254.146 267.073 255.811 263.648 256.899 263.87C258.189 264.132 256.457 269.07 259.391 272.475C261.614 275.053 264.196 274.066 266.394 277.076C266.692 277.484 268.35 279.756 267.989 282.471C267.545 285.798 264.891 286.681 264.26 289.438C263.809 291.406 264.546 294.433 269.766 299.076Z" fill="white"/>
</mask>
<g mask="url(#mask8_4140_14415)">
<path opacity="0.3" d="M270.501 300.244C270.027 299.791 269.395 299.252 268.726 298.681C265.792 296.175 261.774 292.744 262.215 289.497C262.447 287.787 262.739 286.457 262.974 285.387C263.427 283.323 263.701 282.078 263.066 280.461C262.313 278.544 260.944 277.731 259.495 276.869C258.192 276.094 256.844 275.293 255.942 273.63C254.478 270.931 254.893 267.139 257.176 262.359L257.363 262.449C255.11 267.165 254.693 270.894 256.124 273.531C256.999 275.144 258.322 275.93 259.601 276.691C261.016 277.533 262.48 278.403 263.259 280.385C263.917 282.061 263.638 283.329 263.176 285.432C262.942 286.497 262.651 287.824 262.42 289.525C261.995 292.66 265.963 296.049 268.861 298.523C269.532 299.096 270.166 299.638 270.644 300.094L270.501 300.244Z" fill="white"/>
</g>
<mask id="mask9_4140_14415" style="mask-type:luminance" maskUnits="userSpaceOnUse" x="252" y="263" width="18" height="37">
<path d="M269.766 299.076C268.263 298.542 266.109 297.606 263.84 295.951C261.456 294.211 259.175 292.547 258.303 289.755C257.296 286.53 259.302 285.517 258.293 282.563C257.147 279.205 254.105 279.548 252.918 276.059C252.113 273.691 252.803 271.443 253.414 269.456C254.146 267.073 255.811 263.648 256.899 263.87C258.189 264.132 256.457 269.07 259.391 272.475C261.614 275.053 264.196 274.066 266.394 277.076C266.692 277.484 268.35 279.756 267.989 282.471C267.545 285.798 264.891 286.681 264.26 289.438C263.809 291.406 264.546 294.433 269.766 299.076Z" fill="white"/>
</mask>
<g mask="url(#mask9_4140_14415)">
<path opacity="0.3" d="M257.218 276.57C256.327 276.282 255.352 275.798 254.452 274.992C251.19 272.07 251.937 267.535 251.971 267.344L252.175 267.379C252.142 267.566 251.413 271.992 254.591 274.838C256.237 276.312 258.141 276.679 259.279 276.755C258.782 276.231 257.613 274.762 257.858 272.75C258.063 271.073 259.124 270.022 259.571 269.648L259.704 269.806C259.276 270.165 258.26 271.171 258.064 272.775C257.784 275.067 259.426 276.625 259.614 276.795L259.824 276.985L259.542 276.975C258.974 276.957 258.141 276.869 257.218 276.57Z" fill="white"/>
</g>
<mask id="mask10_4140_14415" style="mask-type:luminance" maskUnits="userSpaceOnUse" x="252" y="263" width="18" height="37">
<path d="M269.766 299.076C268.263 298.542 266.109 297.606 263.84 295.951C261.456 294.211 259.175 292.547 258.303 289.755C257.296 286.53 259.302 285.517 258.293 282.563C257.147 279.205 254.105 279.548 252.918 276.059C252.113 273.691 252.803 271.443 253.414 269.456C254.146 267.073 255.811 263.648 256.899 263.87C258.189 264.132 256.457 269.07 259.391 272.475C261.614 275.053 264.196 274.066 266.394 277.076C266.692 277.484 268.35 279.756 267.989 282.471C267.545 285.798 264.891 286.681 264.26 289.438C263.809 291.406 264.546 294.433 269.766 299.076Z" fill="white"/>
</mask>
<g mask="url(#mask10_4140_14415)">
<path opacity="0.3" d="M263.215 284.618L263.179 284.492C262.87 283.424 262.191 281.908 260.713 280.75C257.375 278.137 253.063 279.826 252.881 279.899L252.804 279.707C252.991 279.632 257.411 277.901 260.841 280.587C262.304 281.733 263.006 283.219 263.34 284.308C264.018 283.901 265.75 282.659 266.308 280.346C267.081 277.138 264.95 274.74 264.705 274.477L264.856 274.336C265.109 274.607 267.308 277.081 266.509 280.395C265.898 282.931 263.921 284.219 263.329 284.554L263.215 284.618Z" fill="white"/>
</g>
<mask id="mask11_4140_14415" style="mask-type:luminance" maskUnits="userSpaceOnUse" x="252" y="263" width="18" height="37">
<path d="M269.766 299.076C268.263 298.542 266.109 297.606 263.84 295.951C261.456 294.211 259.175 292.547 258.303 289.755C257.296 286.53 259.302 285.517 258.293 282.563C257.147 279.205 254.105 279.548 252.918 276.059C252.113 273.691 252.803 271.443 253.414 269.456C254.146 267.073 255.811 263.648 256.899 263.87C258.189 264.132 256.457 269.07 259.391 272.475C261.614 275.053 264.196 274.066 266.394 277.076C266.692 277.484 268.35 279.756 267.989 282.471C267.545 285.798 264.891 286.681 264.26 289.438C263.809 291.406 264.546 294.433 269.766 299.076Z" fill="white"/>
</mask>
<g mask="url(#mask11_4140_14415)">
<path opacity="0.3" d="M262.269 291.028L262.213 290.873C261.731 289.545 260.946 288.324 259.941 287.342C258.514 285.948 256.943 285.302 255.875 285.004L255.931 284.805C257.022 285.109 258.628 285.769 260.086 287.194C261.074 288.159 261.854 289.351 262.35 290.648L268.535 284.312L268.683 284.457L262.269 291.028Z" fill="white"/>
</g>
<path d="M265.864 218.521C264.319 219.241 266.993 223.377 265.841 230.164C264.009 240.952 255.041 243.634 255.807 252.035C256.219 256.561 258.188 259.686 258.188 259.686C258.835 260.713 259.323 261.193 261.569 264.231C261.778 264.513 263.791 267.238 264.283 267.992C267.611 273.101 260.835 280.586 262.892 287.901C264.314 292.954 268.05 296.387 271.113 298.548C265.366 289.515 265.431 283.722 266.698 280.03C268.455 274.911 272.442 274.071 274.567 267.626C276.051 263.124 274.665 261.837 274.701 253.561C274.757 240.762 278.09 239.375 276.398 232.35C274.413 224.104 267.793 217.622 265.864 218.521Z" fill="#3C8F7C"/>
<mask id="mask12_4140_14415" style="mask-type:luminance" maskUnits="userSpaceOnUse" x="255" y="218" width="22" height="81">
<path d="M265.864 218.521C264.319 219.241 266.993 223.377 265.841 230.164C264.009 240.952 255.041 243.634 255.807 252.035C256.219 256.561 258.188 259.686 258.188 259.686C258.835 260.713 259.323 261.193 261.569 264.231C261.778 264.513 263.791 267.238 264.283 267.992C267.611 273.101 260.835 280.586 262.892 287.901C264.314 292.954 268.05 296.387 271.113 298.548C265.366 289.515 265.431 283.722 266.698 280.03C268.455 274.911 272.442 274.071 274.567 267.626C276.051 263.124 274.665 261.837 274.701 253.561C274.757 240.762 278.09 239.375 276.398 232.35C274.413 224.104 267.793 217.622 265.864 218.521Z" fill="white"/>
</mask>
<g mask="url(#mask12_4140_14415)">
<path opacity="0.5" d="M265.232 291.568C264.05 287.413 263.917 283.418 264.837 279.694C265.544 276.833 266.605 275.173 267.63 273.568C268.624 272.013 269.563 270.544 270.018 268.13C270.667 264.685 269.713 262.697 268.609 260.396C267.672 258.44 266.609 256.224 266.438 252.731C266.204 247.967 267.822 244.991 269.385 242.114C270.851 239.417 272.235 236.871 272.193 232.973C272.136 227.6 269.258 222.126 263.64 216.704L263.784 216.555C269.443 222.017 272.343 227.54 272.401 232.97C272.443 236.922 270.981 239.612 269.568 242.213C268.017 245.065 266.414 248.015 266.645 252.721C266.814 256.173 267.867 258.369 268.796 260.306C269.916 262.641 270.883 264.657 270.221 268.169C269.759 270.622 268.81 272.108 267.805 273.68C266.788 275.271 265.737 276.916 265.038 279.744C264.127 283.433 264.259 287.392 265.432 291.512L265.232 291.568Z" fill="white"/>
</g>
<mask id="mask13_4140_14415" style="mask-type:luminance" maskUnits="userSpaceOnUse" x="255" y="218" width="22" height="81">
<path d="M265.864 218.521C264.319 219.241 266.993 223.377 265.841 230.164C264.009 240.952 255.041 243.634 255.807 252.035C256.219 256.561 258.188 259.686 258.188 259.686C258.835 260.713 259.323 261.193 261.569 264.231C261.778 264.513 263.791 267.238 264.283 267.992C267.611 273.101 260.835 280.586 262.892 287.901C264.314 292.954 268.05 296.387 271.113 298.548C265.366 289.515 265.431 283.722 266.698 280.03C268.455 274.911 272.442 274.071 274.567 267.626C276.051 263.124 274.665 261.837 274.701 253.561C274.757 240.762 278.09 239.375 276.398 232.35C274.413 224.104 267.793 217.622 265.864 218.521Z" fill="white"/>
</mask>
<g mask="url(#mask13_4140_14415)">
<path opacity="0.5" d="M270.884 239.439L270.889 239.271C270.925 237.962 270.729 234.607 268.118 231.727C265.756 229.123 262.774 228.469 261.601 228.309L261.629 228.104C262.824 228.267 265.863 228.933 268.271 231.588C270.827 234.406 271.113 237.671 271.099 239.107C272.744 238.3 274.156 237.115 275.19 235.671C277.595 232.312 277.291 228.605 277.049 227.167L277.253 227.133C277.5 228.596 277.809 232.37 275.358 235.792C274.273 237.308 272.778 238.544 271.036 239.367L270.884 239.439Z" fill="white"/>
</g>
<mask id="mask14_4140_14415" style="mask-type:luminance" maskUnits="userSpaceOnUse" x="255" y="218" width="22" height="81">
<path d="M265.864 218.521C264.319 219.241 266.993 223.377 265.841 230.164C264.009 240.952 255.041 243.634 255.807 252.035C256.219 256.561 258.188 259.686 258.188 259.686C258.835 260.713 259.323 261.193 261.569 264.231C261.778 264.513 263.791 267.238 264.283 267.992C267.611 273.101 260.835 280.586 262.892 287.901C264.314 292.954 268.05 296.387 271.113 298.548C265.366 289.515 265.431 283.722 266.698 280.03C268.455 274.911 272.442 274.071 274.567 267.626C276.051 263.124 274.665 261.837 274.701 253.561C274.757 240.762 278.09 239.375 276.398 232.35C274.413 224.104 267.793 217.622 265.864 218.521Z" fill="white"/>
</mask>
<g mask="url(#mask14_4140_14415)">
<path opacity="0.5" d="M268.143 259.156L268.038 259.108C266.414 258.378 265.159 257.359 264.307 256.08C263.314 254.586 263.178 253.204 263.035 251.74C262.948 250.848 262.858 249.926 262.567 248.927C261.827 246.39 259.965 244.094 257.032 242.101L257.148 241.93C260.122 243.95 262.012 246.285 262.765 248.869C263.062 249.886 263.153 250.819 263.241 251.72C263.382 253.157 263.515 254.514 264.48 255.965C265.291 257.184 266.48 258.161 268.017 258.871C268.6 257.061 269.346 255.298 270.235 253.629C271.882 250.537 274.028 247.733 276.614 245.295L276.756 245.446C274.186 247.869 272.054 250.655 270.418 253.726C269.516 255.419 268.763 257.208 268.178 259.045L268.143 259.156Z" fill="white"/>
</g>
<mask id="mask15_4140_14415" style="mask-type:luminance" maskUnits="userSpaceOnUse" x="255" y="218" width="22" height="81">
<path d="M265.864 218.521C264.319 219.241 266.993 223.377 265.841 230.164C264.009 240.952 255.041 243.634 255.807 252.035C256.219 256.561 258.188 259.686 258.188 259.686C258.835 260.713 259.323 261.193 261.569 264.231C261.778 264.513 263.791 267.238 264.283 267.992C267.611 273.101 260.835 280.586 262.892 287.901C264.314 292.954 268.05 296.387 271.113 298.548C265.366 289.515 265.431 283.722 266.698 280.03C268.455 274.911 272.442 274.071 274.567 267.626C276.051 263.124 274.665 261.837 274.701 253.561C274.757 240.762 278.09 239.375 276.398 232.35C274.413 224.104 267.793 217.622 265.864 218.521Z" fill="white"/>
</mask>
<g mask="url(#mask15_4140_14415)">
<path opacity="0.5" d="M269.405 270.613L269.368 270.435C269.198 269.602 268.429 266.746 265.682 264.977C262.098 262.668 258.227 264.146 257.797 264.322L257.719 264.13C258.159 263.95 262.121 262.438 265.795 264.803C268.439 266.506 269.294 269.191 269.533 270.217C270.937 268.926 272.152 267.456 273.144 265.846C274.76 263.223 275.788 260.183 276.118 257.055L276.324 257.076C275.991 260.236 274.952 263.306 273.32 265.955C272.287 267.632 271.015 269.158 269.539 270.491L269.405 270.613Z" fill="white"/>
</g>
<path d="M271.759 299.485C270.029 298.58 266.881 296.621 265.104 293.197C261.922 287.066 265.047 279.918 269.241 276.511C274.475 272.258 278.694 276.01 283.635 272.004C289.246 267.455 285.606 261.155 291.441 256.437C295.401 253.235 300.573 253.312 305.146 253.379C310.629 253.461 319.106 254.891 319.72 257.358C320.446 260.284 308.875 259.655 304.906 268.063C301.9 274.429 306.385 279.344 302.49 285.929C301.962 286.821 299.022 291.789 293.235 292.708C285.668 293.909 280.285 287.067 275.66 289.07C273.783 289.882 271.776 292.263 271.759 299.485Z" fill="#3C8F7C"/>
<mask id="mask16_4140_14415" style="mask-type:luminance" maskUnits="userSpaceOnUse" x="263" y="253" width="57" height="47">
<path d="M271.759 299.486C270.029 298.58 266.881 296.621 265.104 293.197C261.922 287.066 265.047 279.918 269.241 276.511C274.475 272.258 278.694 276.01 283.635 272.004C289.247 267.455 285.606 261.155 291.441 256.437C295.401 253.235 300.573 253.312 305.146 253.379C310.629 253.461 319.106 254.891 319.72 257.358C320.447 260.284 308.875 259.655 304.906 268.063C301.9 274.429 306.385 279.344 302.49 285.929C301.962 286.821 299.022 291.789 293.235 292.708C285.668 293.909 280.285 287.067 275.66 289.07C273.783 289.883 271.776 292.263 271.759 299.486Z" fill="white"/>
</mask>
<g mask="url(#mask16_4140_14415)">
<path opacity="0.74" d="M271.135 301.619C267.596 293.765 267.05 288.11 269.513 284.808C271.477 282.175 274.514 281.963 278.03 281.716C281.591 281.467 285.628 281.185 289.292 278.182C292.638 275.441 293.467 272.31 294.345 268.996C295.142 265.988 295.965 262.877 298.851 260.131C303.47 255.735 311.224 254.434 321.898 256.264L321.863 256.468C311.257 254.65 303.563 255.933 298.994 260.281C296.151 262.987 295.335 266.069 294.545 269.049C293.698 272.249 292.821 275.559 289.423 278.343C285.708 281.386 281.637 281.671 278.044 281.923C274.579 282.165 271.587 282.375 269.678 284.932C267.264 288.168 267.818 293.754 271.324 301.533L271.135 301.619Z" fill="white"/>
</g>
<mask id="mask17_4140_14415" style="mask-type:luminance" maskUnits="userSpaceOnUse" x="263" y="253" width="57" height="47">
<path d="M271.759 299.486C270.029 298.58 266.881 296.621 265.104 293.197C261.922 287.066 265.047 279.918 269.241 276.511C274.475 272.258 278.694 276.01 283.635 272.004C289.247 267.455 285.606 261.155 291.441 256.437C295.401 253.235 300.573 253.312 305.146 253.379C310.629 253.461 319.106 254.891 319.72 257.358C320.447 260.284 308.875 259.655 304.906 268.063C301.9 274.429 306.385 279.344 302.49 285.929C301.962 286.821 299.022 291.789 293.235 292.708C285.668 293.909 280.285 287.067 275.66 289.07C273.783 289.883 271.776 292.263 271.759 299.486Z" fill="white"/>
</mask>
<g mask="url(#mask17_4140_14415)">
<path opacity="0.74" d="M291.577 276.547C291.49 276.519 291.406 276.484 291.325 276.442C289.905 275.704 289.931 273.1 289.957 270.581C289.996 266.637 291.108 263.535 291.767 262.037C293.875 257.249 297.276 254.119 299.758 252.336L299.878 252.504C297.417 254.272 294.046 257.375 291.957 262.121C291.304 263.604 290.203 266.676 290.163 270.583C290.139 273.04 290.113 275.579 291.42 276.259C293.482 277.33 297.736 273.236 299.337 271.694L299.46 271.575C300.533 270.543 301.247 269.604 301.877 268.776C302.761 267.613 303.525 266.608 304.955 265.752C307.113 264.461 309.853 264.092 313.098 264.656L313.063 264.86C309.867 264.305 307.175 264.665 305.062 265.93C303.665 266.765 302.913 267.755 302.042 268.901C301.407 269.736 300.689 270.681 299.604 271.725L299.481 271.843C297.911 273.355 293.838 277.279 291.577 276.547Z" fill="white"/>
</g>
<mask id="mask18_4140_14415" style="mask-type:luminance" maskUnits="userSpaceOnUse" x="263" y="253" width="57" height="47">
<path d="M271.759 299.486C270.029 298.58 266.881 296.621 265.104 293.197C261.922 287.066 265.047 279.918 269.241 276.511C274.475 272.258 278.694 276.01 283.635 272.004C289.247 267.455 285.606 261.155 291.441 256.437C295.401 253.235 300.573 253.312 305.146 253.379C310.629 253.461 319.106 254.891 319.72 257.358C320.447 260.284 308.875 259.655 304.906 268.063C301.9 274.429 306.385 279.344 302.49 285.929C301.962 286.821 299.022 291.789 293.235 292.708C285.668 293.909 280.285 287.067 275.66 289.07C273.783 289.883 271.776 292.263 271.759 299.486Z" fill="white"/>
</mask>
<g mask="url(#mask18_4140_14415)">
<path opacity="0.74" d="M287.972 287.465C285.736 286.742 283.117 284.82 280.142 281.715L280.052 281.621L280.164 281.554C282.051 280.441 283.516 279.013 284.521 277.311C285.698 275.316 285.886 273.507 286.146 271.004L286.168 270.799C286.942 263.371 287.331 259.642 287.974 258.069C289.227 255.004 291.814 252.4 295.664 250.328L295.762 250.511C291.956 252.559 289.4 255.128 288.166 258.147C287.534 259.693 287.146 263.412 286.374 270.821L286.353 271.026C286.089 273.555 285.9 275.382 284.699 277.416C283.697 279.115 282.245 280.544 280.382 281.665C284.846 286.301 288.473 288.229 291.162 287.397C292.661 286.934 293.481 285.754 294.432 284.388C295.384 283.019 296.464 281.467 298.477 280.249C301.082 278.673 304.369 278.2 308.246 278.842L308.212 279.047C304.385 278.413 301.146 278.877 298.584 280.426C296.609 281.621 295.542 283.154 294.602 284.506C293.63 285.904 292.79 287.111 291.224 287.595C290.252 287.895 289.167 287.851 287.972 287.465Z" fill="white"/>
</g>
<mask id="mask19_4140_14415" style="mask-type:luminance" maskUnits="userSpaceOnUse" x="263" y="253" width="57" height="47">
<path d="M271.759 299.486C270.029 298.58 266.881 296.621 265.104 293.197C261.922 287.066 265.047 279.918 269.241 276.511C274.475 272.258 278.694 276.01 283.635 272.004C289.247 267.455 285.606 261.155 291.441 256.437C295.401 253.235 300.573 253.312 305.146 253.379C310.629 253.461 319.106 254.891 319.72 257.358C320.447 260.284 308.875 259.655 304.906 268.063C301.9 274.429 306.385 279.344 302.49 285.929C301.962 286.821 299.022 291.789 293.235 292.708C285.668 293.909 280.285 287.067 275.66 289.07C273.783 289.883 271.776 292.263 271.759 299.486Z" fill="white"/>
</mask>
<g mask="url(#mask19_4140_14415)">
<path d="M284.716 294.903C279.43 293.193 276.527 289.344 276.497 289.303C276.335 289.084 276.172 288.85 276.004 288.608C275.125 287.343 274.126 285.909 272.345 285.438C271.377 285.183 270.315 285.251 269.186 285.64L269.05 285.687L269.049 285.543C269.038 284.205 269.351 283.055 269.981 282.126C270.783 280.942 271.976 280.466 273.028 280.045C274.103 279.616 275.031 279.245 275.361 278.25C276.138 275.902 274.921 273.831 274.669 273.44L274.843 273.328C275.104 273.733 276.364 275.878 275.557 278.315C275.197 279.402 274.181 279.808 273.105 280.238C272.08 280.647 270.919 281.111 270.152 282.242C269.569 283.103 269.268 284.164 269.256 285.398C270.373 285.037 271.429 284.983 272.398 285.238C274.255 285.726 275.274 287.195 276.175 288.49C276.341 288.73 276.502 288.962 276.663 289.179C276.696 289.223 279.949 293.536 285.847 295.012C291.554 296.439 297.249 292.235 299.432 290.361L299.567 290.519C297.359 292.413 291.598 296.664 285.797 295.213C285.426 295.12 285.066 295.016 284.716 294.903Z" fill="white"/>
</g>
<path d="M93.2653 292.962L160.545 276.133L163.91 292.478L102.317 320.906L53.5478 308.859L24.1279 279.973L93.2653 292.962Z" fill="url(#paint6_linear_4140_14415)"/>
<path d="M93.2653 292.962L160.545 276.133L163.91 292.478L102.317 320.906L53.5478 308.859L24.1279 279.973L93.2653 292.962Z" fill="#3F7FDD"/>
<path d="M91.0005 315.695C104.373 308.526 114.248 301.224 120.952 295.705C134.142 284.846 140.192 276.654 153.545 273.417C155.932 272.838 169.528 269.542 173.916 275.58C178.773 282.265 169.329 296.244 168.182 297.942C151.122 323.193 107.679 322.014 94.0524 321.196C93.0352 319.362 92.018 317.528 91.0005 315.695Z" fill="#86B1F2"/>
<path opacity="0.3" d="M174.065 275.469C172.783 273.704 170.706 272.752 168.36 272.281C169.141 274.984 169.212 277.52 168.237 279.735C165.571 285.791 157.677 283.926 152.133 291.032C146.687 298.012 150.457 304.738 145.643 307.617C140.126 310.916 133.286 303.208 127.376 306.896C123.358 309.403 124.608 314.159 119.925 316.75C116.689 318.541 113.516 317.694 109.83 317.231C105.604 316.7 99.8153 316.587 92.5488 318.105C93.0999 319.098 93.6511 320.091 94.2024 321.084C107.829 321.903 151.272 323.082 168.332 297.831C169.479 296.132 178.923 282.154 174.065 275.469Z" fill="#86B1F2"/>
<path d="M101.26 319.36C101.26 319.36 103.71 317.603 107.266 318.801C110.821 319.998 116.467 320.964 116.459 322.703C116.45 324.441 110.801 325.529 106.898 324.815C103.164 324.131 100.227 320.886 101.26 319.36Z" fill="url(#paint7_linear_4140_14415)"/>
<path d="M97.6693 316.391L104.213 318.496C104.213 318.496 105.276 320.266 103.841 321.389C102.407 322.512 97.4219 320.137 97.4219 320.137L97.6693 316.391Z" fill="url(#paint8_linear_4140_14415)"/>
<path d="M7.10967 286.54C5.17755 297.789 29.4557 309.958 35.0137 312.744C46.3408 318.422 67.6541 326.437 99.2869 323.375C99.7076 320.851 100.128 318.327 100.549 315.803C96.37 314.372 90.1772 312.045 82.9915 308.51C70.728 302.478 66.0714 298.17 49.054 287.881C30.2233 276.496 24.7381 275.036 19.1275 276.445C14.3301 277.65 8.00738 281.313 7.10967 286.54Z" fill="#86B1F2"/>
<path d="M32.0135 264.838C27.9096 249.995 34.6839 229.968 48.9588 220.311C60.6104 212.43 74.2627 212.941 78.5229 213.101C83.1862 213.275 82.7045 213.881 97.3838 216.597C117.763 220.367 119.645 219.453 125.573 222.294C136.72 227.637 142.129 237.343 143.141 239.232C148.321 248.898 152.537 266.866 142.698 275.654C137.105 280.649 129.264 280.629 124.852 280.161C124.551 278.178 124.251 276.195 123.951 274.212C124.849 273.516 130.146 269.27 130.801 261.773C131.553 253.158 125.531 247.597 124.852 246.991C122.716 251.114 120.087 257.375 118.903 265.379C117.374 275.714 118.957 284.212 120.298 289.21C114.908 292.168 105.996 296.182 94.3866 297.466C85.6402 298.434 74.8107 296.581 67.8871 291.17C58.1174 283.535 57.2916 266.704 66.9404 246.009C63.4087 248.375 58.2921 252.655 56.1697 259.43C55.8488 260.454 55.3054 262.464 55.088 270.246C54.6977 284.227 36.2666 280.219 32.0135 264.838Z" fill="#DCACB1"/>
<path opacity="0.3" d="M98.1721 275.106C93.2559 275.709 91.9179 280.813 87.356 280.514C77.4299 279.864 69.4631 262.68 73.6556 253.294C76.3894 247.174 83.516 246.107 83.0297 242.117C82.6407 238.925 77.6945 236.469 73.6556 236.348C67.3673 236.162 63.215 241.638 61.7579 243.559C58.3526 248.05 57.6185 252.981 57.5415 256.152C60.0403 251.25 64.0202 247.958 66.9404 246.002C57.2916 266.697 58.1174 283.147 67.887 290.782C74.8105 296.193 85.64 298.427 94.3866 297.459C103.809 296.417 111.454 293.576 116.882 290.962C111.608 282.377 104.891 274.282 98.1721 275.106Z" fill="url(#paint9_linear_4140_14415)"/>
<path d="M115.305 289.109L57.7793 288.25L73.0764 295.633L115.452 292.859L115.305 289.109Z" fill="url(#paint10_linear_4140_14415)"/>
<path d="M34.7952 254.946C39.2343 250.744 50.1243 253.39 54.1868 259.427C57.1775 263.872 54.7024 267.529 56.8908 273.128C59.5718 279.987 69.6848 286.189 75.8998 288.253C74.927 290.348 75.2132 290.89 74.2404 292.985C70.2868 292.491 41.7087 288.113 34.7177 271.145C34.3537 270.261 30.0351 259.451 34.7952 254.946Z" fill="#DCACB1"/>
<path d="M99.6642 210.648C99.6642 210.648 95.012 215.679 91.1505 216.203C87.2889 216.726 81.7081 215.701 80.7466 216.203C79.785 216.705 85.5963 218.772 90.2055 220.036C94.8146 221.301 103.183 223.826 105.497 223.273C107.81 222.72 102.968 219.754 101.051 218.967C99.1334 218.181 101.878 214.141 101.878 214.141L99.6642 210.648Z" fill="white"/>
<path d="M106.567 213.527C108.249 213.063 109.785 211.174 109.766 209.218C109.75 207.534 108.568 206.385 107.86 205.697C105.81 203.703 102.246 202.455 99.6628 203.766C98.1318 204.542 97.433 208.068 97.2782 208.679C97.1032 209.371 97.3731 209.862 97.4476 210.544C97.5508 211.49 97.7017 212.984 97.9215 215.457C98.3539 215.11 98.918 214.704 99.6094 214.324C99.8753 214.178 100.925 213.615 102.06 213.352C104.336 212.826 104.972 213.967 106.567 213.527Z" fill="url(#paint11_linear_4140_14415)"/>
<path d="M96.9561 212.773C96.9561 212.773 96.5659 216.34 99.6595 218.418C102.429 220.278 107.372 214.661 106.654 212.108C106.415 211.256 105.423 210.216 104.31 209.767C103.653 209.502 103.297 209.585 102.231 209.132C101.248 208.713 101.087 208.444 100.679 208.462C100.169 208.484 99.4513 208.948 98.6358 211.074C98.5251 210.177 98.0718 209.516 97.4881 209.389C97.3949 209.369 97.119 209.352 96.8731 209.46C95.984 209.852 95.9364 211.19 96.9561 212.773Z" fill="white"/>
<path d="M100.833 208.019C100.887 208.212 100.132 208.387 99.5859 209.036C98.5251 210.297 98.6392 212.878 99.8832 214.048C100.619 214.74 101.207 214.429 102.63 215.303C103.511 215.844 104.109 216.47 104.464 216.892C103.776 218.641 102.289 219.767 100.824 219.692C99.2458 219.611 98.2642 218.167 97.8538 217.563C97.5793 217.159 96.6977 215.867 96.9143 214.312C97.14 212.692 98.2921 212.499 98.1429 211.17C98.0675 210.5 97.708 209.958 97.8061 208.849C97.8327 208.547 97.8844 208.302 97.9245 208.142C99.1604 207.945 100.754 207.74 100.833 208.019Z" fill="url(#paint12_linear_4140_14415)"/>
<path d="M103.098 216.688C103.098 216.688 102.3 216.546 101.358 215.733C101.312 215.693 101.248 215.666 101.223 215.687C101.129 215.762 101.438 216.668 102.145 216.952C102.648 217.154 103.271 217.011 103.292 216.868C103.301 216.808 103.203 216.742 103.098 216.688Z" fill="url(#paint13_linear_4140_14415)"/>
<path d="M77.4254 259.345L73.3706 296.265C73.2306 297.539 75.0142 299.437 76.2942 299.376L135.779 295.724C136.756 295.678 137.57 294.958 137.736 293.994L145.202 258.336C145.425 257.038 143.092 255.698 141.776 255.735L79.4398 257.488C78.3989 257.517 77.539 258.31 77.4254 259.345Z" fill="url(#paint14_linear_4140_14415)"/>
<path d="M78.7847 260.423L74.73 297.343C74.5901 298.617 75.6214 299.714 76.9016 299.654L137.139 296.802C138.116 296.756 138.93 296.037 139.095 295.072L145.249 259.251C145.472 257.953 144.452 256.776 143.135 256.813L80.7992 258.566C79.7583 258.595 78.8984 259.388 78.7847 260.423Z" fill="url(#paint15_linear_4140_14415)"/>
<path opacity="0.3" d="M114.156 288.15C108.897 285.92 110.753 281.669 104.542 276.372C96.3485 269.384 87.997 272.415 85.073 266.998C84.1626 265.311 83.7278 262.686 85.3137 258.438L80.7997 258.564C79.7587 258.594 78.899 259.386 78.7853 260.421L74.7305 297.342C74.5907 298.615 75.6222 299.713 76.9021 299.652L137.139 296.801C138.117 296.755 138.93 296.035 139.096 295.071L139.945 290.128C138.117 289.111 135.933 288.186 133.385 287.669C124.548 285.877 120.212 290.716 114.156 288.15Z" fill="url(#paint16_linear_4140_14415)"/>
<path d="M72.436 291.702C74.9528 294.058 76.6339 293.848 77.1986 293.718C78.1455 293.499 78.2724 292.972 80.674 291.092C82.8195 289.413 83.4973 289.224 83.4722 288.645C83.4246 287.549 80.9235 286.588 78.8868 286.486C76.0314 286.343 73.8743 287.877 73.0272 288.558L72.436 291.702Z" fill="white"/>
<defs>
<linearGradient id="paint0_linear_4140_14415" x1="85.5" y1="107.5" x2="121.5" y2="247" gradientUnits="userSpaceOnUse">
<stop stop-color="#A72F3B"/>
<stop offset="1" stop-color="#444B8C"/>
</linearGradient>
<linearGradient id="paint1_linear_4140_14415" x1="133.347" y1="94.2435" x2="274.026" y2="531.213" gradientUnits="userSpaceOnUse">
<stop stop-color="#A72F3B"/>
<stop offset="0.34375" stop-color="#26264F"/>
</linearGradient>
<linearGradient id="paint2_linear_4140_14415" x1="45.0058" y1="189.395" x2="290.583" y2="189.395" gradientUnits="userSpaceOnUse">
<stop offset="0.494" stop-color="#EBEFF2"/>
<stop offset="1" stop-color="white"/>
</linearGradient>
<linearGradient id="paint3_linear_4140_14415" x1="320.009" y1="137.88" x2="292.455" y2="189.23" gradientUnits="userSpaceOnUse">
<stop stop-color="#A72F3B"/>
<stop offset="0.9964" stop-color="#26264F"/>
</linearGradient>
<linearGradient id="paint4_linear_4140_14415" x1="124.114" y1="176.572" x2="219.333" y2="185.38" gradientUnits="userSpaceOnUse">
<stop stop-color="#DCACB1"/>
<stop offset="1" stop-color="#A72F3B"/>
</linearGradient>
<linearGradient id="paint5_linear_4140_14415" x1="124.067" y1="177.083" x2="196.344" y2="183.768" gradientUnits="userSpaceOnUse">
<stop stop-color="#A72F3B"/>
<stop offset="1" stop-color="#EDD5D8"/>
</linearGradient>
<linearGradient id="paint6_linear_4140_14415" x1="94.7851" y1="271.099" x2="93.3429" y2="299.582" gradientUnits="userSpaceOnUse">
<stop stop-color="#FF9085"/>
<stop offset="1" stop-color="#FB6FBB"/>
</linearGradient>
<linearGradient id="paint7_linear_4140_14415" x1="115.021" y1="329.45" x2="98.7964" y2="309.26" gradientUnits="userSpaceOnUse">
<stop stop-color="#311944"/>
<stop offset="1" stop-color="#6B3976"/>
</linearGradient>
<linearGradient id="paint8_linear_4140_14415" x1="105.06" y1="324.654" x2="82.7061" y2="296.531" gradientUnits="userSpaceOnUse">
<stop stop-color="#FFC444"/>
<stop offset="0.9964" stop-color="#F36F56"/>
</linearGradient>
<linearGradient id="paint9_linear_4140_14415" x1="84.3528" y1="227.308" x2="87.4075" y2="276.724" gradientUnits="userSpaceOnUse">
<stop offset="0.0036" stop-color="#DCACB1"/>
<stop offset="1" stop-color="#FFC444"/>
</linearGradient>
<linearGradient id="paint10_linear_4140_14415" x1="57.7793" y1="291.941" x2="115.452" y2="291.941" gradientUnits="userSpaceOnUse">
<stop stop-color="#AA80F9"/>
<stop offset="0.9964" stop-color="#6165D7"/>
</linearGradient>
<linearGradient id="paint11_linear_4140_14415" x1="87.3054" y1="218.263" x2="106.966" y2="206.396" gradientUnits="userSpaceOnUse">
<stop stop-color="#311944"/>
<stop offset="1" stop-color="#6B3976"/>
</linearGradient>
<linearGradient id="paint12_linear_4140_14415" x1="88.7254" y1="220.638" x2="108.407" y2="208.758" gradientUnits="userSpaceOnUse">
<stop stop-color="#311944"/>
<stop offset="1" stop-color="#6B3976"/>
</linearGradient>
<linearGradient id="paint13_linear_4140_14415" x1="101.207" y1="216.366" x2="103.292" y2="216.366" gradientUnits="userSpaceOnUse">
<stop offset="0.0036" stop-color="#F36F56"/>
<stop offset="1" stop-color="#FFC444"/>
</linearGradient>
<linearGradient id="paint14_linear_4140_14415" x1="73.3627" y1="277.556" x2="145.217" y2="277.556" gradientUnits="userSpaceOnUse">
<stop stop-color="#444B8C"/>
<stop offset="0.9964" stop-color="#26264F"/>
</linearGradient>
<linearGradient id="paint15_linear_4140_14415" x1="74.7173" y1="278.234" x2="145.28" y2="278.234" gradientUnits="userSpaceOnUse">
<stop stop-color="#444B8C"/>
<stop offset="0.9964" stop-color="#26264F"/>
</linearGradient>
<linearGradient id="paint16_linear_4140_14415" x1="74.7177" y1="279.046" x2="139.945" y2="279.046" gradientUnits="userSpaceOnUse">
<stop stop-color="#444B8C"/>
<stop offset="0.9964" stop-color="#26264F"/>
</linearGradient>
</defs>
</svg>
