<svg width="24" height="25" viewBox="0 0 24 25" fill="none" xmlns="http://www.w3.org/2000/svg">
<path d="M12 22.1516C11.69 22.1516 11.39 22.1116 11.14 22.0216C7.32 20.7116 1.25 16.0616 1.25 9.19156C1.25 5.69156 4.08 2.85156 7.56 2.85156C9.25 2.85156 10.83 3.51156 12 4.69156C13.17 3.51156 14.75 2.85156 16.44 2.85156C19.92 2.85156 22.75 5.70156 22.75 9.19156C22.75 16.0716 16.68 20.7116 12.86 22.0216C12.61 22.1116 12.31 22.1516 12 22.1516ZM7.56 4.35156C4.91 4.35156 2.75 6.52156 2.75 9.19156C2.75 16.0216 9.32 19.8216 11.63 20.6116C11.81 20.6716 12.2 20.6716 12.38 20.6116C14.68 19.8216 21.26 16.0316 21.26 9.19156C21.26 6.52156 19.1 4.35156 16.45 4.35156C14.93 4.35156 13.52 5.06156 12.61 6.29156C12.33 6.67156 11.69 6.67156 11.41 6.29156C10.48 5.05156 9.08 4.35156 7.56 4.35156Z" fill="#434343"/>
</svg>
