<svg width="24" height="24" viewBox="0 0 24 24" fill="none" xmlns="http://www.w3.org/2000/svg">
<path d="M17.8701 21.8678C17.5601 21.8678 17.2501 21.7878 16.9701 21.6178L12.9601 19.2378C12.5401 19.2278 12.1201 19.1978 11.7201 19.1378C11.4501 19.0978 11.2201 18.9178 11.1201 18.6578C11.0201 18.3978 11.0701 18.1178 11.2501 17.9078C11.9101 17.1378 12.2501 16.2178 12.2501 15.2378C12.2501 12.8178 10.1201 10.8478 7.50008 10.8478C6.52008 10.8478 5.58007 11.1178 4.79007 11.6378C4.57007 11.7778 4.30007 11.7978 4.06007 11.6878C3.83007 11.5778 3.66008 11.3578 3.63008 11.0978C3.60008 10.8178 3.58008 10.5378 3.58008 10.2478C3.58008 5.2878 7.88008 1.25781 13.1601 1.25781C18.4401 1.25781 22.7401 5.2878 22.7401 10.2478C22.7401 12.9678 21.4801 15.4678 19.2601 17.1778L19.6001 19.8978C19.6801 20.5778 19.3801 21.2178 18.8101 21.5878C18.5301 21.7678 18.2001 21.8678 17.8701 21.8678ZM13.1501 17.7278C13.2901 17.7178 13.4301 17.7578 13.5501 17.8378L17.7401 20.3278C17.8501 20.3978 17.9401 20.3678 18.0001 20.3278C18.0501 20.2978 18.1301 20.2178 18.1101 20.0778L17.7201 16.9178C17.6901 16.6378 17.8101 16.3678 18.0301 16.2078C20.0701 14.7778 21.2401 12.5978 21.2401 10.2278C21.2401 6.09778 17.6201 2.73779 13.1601 2.73779C8.87008 2.73779 5.35007 5.85783 5.09007 9.77783C5.84007 9.48783 6.65008 9.32782 7.49008 9.32782C10.9401 9.32782 13.7401 11.9678 13.7401 15.2178C13.7501 16.0978 13.5401 16.9478 13.1501 17.7278Z" fill="#B95962"/>
<path d="M4.57977 22.7498C4.31977 22.7498 4.06977 22.6798 3.83977 22.5298C3.38977 22.2398 3.14978 21.7398 3.20978 21.2098L3.40977 19.6698C2.05977 18.5698 1.25977 16.9398 1.25977 15.2298C1.25977 13.2798 2.27978 11.4598 3.98978 10.3698C5.01978 9.69981 6.23977 9.33984 7.50977 9.33984C10.9598 9.33984 13.7598 11.9798 13.7598 15.2298C13.7598 16.5498 13.2798 17.8498 12.3998 18.8798C11.2698 20.2498 9.57977 21.0498 7.71977 21.1098L5.27977 22.5598C5.05977 22.6898 4.81977 22.7498 4.57977 22.7498ZM7.49977 10.8398C6.51977 10.8398 5.57976 11.1098 4.78976 11.6298C3.50976 12.4498 2.74977 13.7898 2.74977 15.2298C2.74977 16.6198 3.42978 17.8898 4.62978 18.7098C4.85978 18.8698 4.97977 19.1398 4.94977 19.4198L4.72977 21.1298L7.11977 19.7098C7.23977 19.6398 7.36977 19.5998 7.49977 19.5998C8.96977 19.5998 10.3598 18.9698 11.2398 17.8998C11.8998 17.1198 12.2498 16.1998 12.2498 15.2198C12.2498 12.8098 10.1198 10.8398 7.49977 10.8398Z" fill="#B95962"/>
</svg>
