<svg width="24" height="25" viewBox="0 0 24 25" fill="none" xmlns="http://www.w3.org/2000/svg">
<path d="M15.2398 23.25H8.75982C6.86982 23.25 5.48982 22.46 4.95982 21.1C4.40982 19.68 4.91982 17.92 6.23982 16.73L10.8798 12.5L6.23982 8.27C4.91982 7.08 4.40982 5.32 4.95982 3.9C5.48982 2.53 6.86982 1.75 8.75982 1.75H15.2398C17.1298 1.75 18.5098 2.54 19.0398 3.9C19.5898 5.32 19.0798 7.08 17.7598 8.27L13.1198 12.5L17.7698 16.73C19.0798 17.92 19.5998 19.68 19.0498 21.1C18.5098 22.46 17.1298 23.25 15.2398 23.25ZM11.9998 13.51L7.24982 17.83C6.40982 18.6 6.03982 19.72 6.35982 20.55C6.65982 21.32 7.50982 21.75 8.75982 21.75H15.2398C16.4898 21.75 17.3398 21.33 17.6398 20.55C17.9598 19.72 17.5998 18.6 16.7498 17.83L11.9998 13.51ZM8.75982 3.25C7.50982 3.25 6.65982 3.67 6.35982 4.45C6.03982 5.28 6.39982 6.4 7.24982 7.17L11.9998 11.49L16.7498 7.17C17.5898 6.4 17.9598 5.28 17.6398 4.45C17.3398 3.68 16.4898 3.25 15.2398 3.25H8.75982Z" fill="#A9791C"/>
</svg>
