<svg width="25" height="24" viewBox="0 0 25 24" fill="none" xmlns="http://www.w3.org/2000/svg">
<path d="M17.7402 22.75H7.26017C4.46017 22.75 2.68017 21.08 2.52017 18.29L2.00017 10.04C1.92017 8.79 2.35017 7.59 3.21017 6.68C4.06017 5.77 5.26017 5.25 6.50017 5.25C6.82017 5.25 7.13017 5.06 7.28017 4.76L8.00017 3.33C8.59017 2.16 10.0702 1.25 11.3602 1.25H13.6502C14.9402 1.25 16.4102 2.16 17.0002 3.32L17.7202 4.78C17.8702 5.06 18.1702 5.25 18.5002 5.25C19.7402 5.25 20.9402 5.77 21.7902 6.68C22.6502 7.6 23.0802 8.79 23.0002 10.04L22.4802 18.3C22.3002 21.13 20.5702 22.75 17.7402 22.75ZM11.3602 2.75C10.6202 2.75 9.68017 3.33 9.34017 4L8.62017 5.44C8.20017 6.25 7.39017 6.75 6.50017 6.75C5.66017 6.75 4.88017 7.09 4.30017 7.7C3.73017 8.31 3.44017 9.11 3.50017 9.94L4.02017 18.2C4.14017 20.22 5.23017 21.25 7.26017 21.25H17.7402C19.7602 21.25 20.8502 20.22 20.9802 18.2L21.5002 9.94C21.5502 9.11 21.2702 8.31 20.7002 7.7C20.1202 7.09 19.3402 6.75 18.5002 6.75C17.6102 6.75 16.8002 6.25 16.3802 5.46L15.6502 4C15.3202 3.34 14.3802 2.76 13.6402 2.76H11.3602V2.75Z" fill="white"/>
<path d="M14 8.75H11C10.59 8.75 10.25 8.41 10.25 8C10.25 7.59 10.59 7.25 11 7.25H14C14.41 7.25 14.75 7.59 14.75 8C14.75 8.41 14.41 8.75 14 8.75Z" fill="white"/>
<path d="M12.5 18.75C10.29 18.75 8.5 16.96 8.5 14.75C8.5 12.54 10.29 10.75 12.5 10.75C14.71 10.75 16.5 12.54 16.5 14.75C16.5 16.96 14.71 18.75 12.5 18.75ZM12.5 12.25C11.12 12.25 10 13.37 10 14.75C10 16.13 11.12 17.25 12.5 17.25C13.88 17.25 15 16.13 15 14.75C15 13.37 13.88 12.25 12.5 12.25Z" fill="white"/>
</svg>
