<svg width="40" height="40" viewBox="0 0 40 40" fill="none" xmlns="http://www.w3.org/2000/svg">
<g clip-path="url(#clip0_5566_38101)">
<mask id="mask0_5566_38101" style="mask-type:luminance" maskUnits="userSpaceOnUse" x="0" y="0" width="40" height="40">
<path d="M0 20C0 31.0457 8.9543 40 20 40C31.0457 40 40 31.0457 40 20C40 8.9543 31.0457 0 20 0C8.9543 0 0 8.9543 0 20Z" fill="white"/>
</mask>
<g mask="url(#mask0_5566_38101)">
<path d="M0 20C0 31.0457 8.9543 40 20 40C31.0457 40 40 31.0457 40 20C40 8.9543 31.0457 0 20 0C8.9543 0 0 8.9543 0 20Z" fill="#DCACB1" fill-opacity="0.5"/>
<path d="M-4 44L44 44L44 -4L-4 -4L-4 44Z" fill="white"/>
<path d="M20 -1.5C31.86 -1.5 41.5 8.14 41.5 20C41.5 31.86 31.86 41.5 20 41.5C8.14 41.5 -1.5 31.86 -1.5 20C-1.5 8.14 8.14 -1.5 20 -1.5ZM20 38.5C30.2 38.5 38.5 30.2 38.5 20C38.5 9.8 30.2 1.5 20 1.5C9.8 1.5 1.5 9.8 1.5 20C1.5 30.2 9.8 38.5 20 38.5Z" fill="#86262F"/>
<path d="M13 18.5H25C25.82 18.5 26.5 19.18 26.5 20C26.5 20.82 25.82 21.5 25 21.5H13C12.18 21.5 11.5 20.82 11.5 20C11.5 19.18 12.18 18.5 13 18.5Z" fill="#86262F"/>
<path d="M20.9991 12.5C21.3791 12.5 21.7591 12.64 22.0591 12.94L28.0591 18.94C28.6391 19.52 28.6391 20.48 28.0591 21.06L22.0591 27.06C21.4791 27.64 20.5191 27.64 19.9391 27.06C19.3591 26.48 19.3591 25.52 19.9391 24.94L24.8791 20L19.9391 15.06C19.3591 14.48 19.3591 13.52 19.9391 12.94C20.2391 12.64 20.6191 12.5 20.9991 12.5Z" fill="#86262F"/>
</g>
</g>
<defs>
<clipPath id="clip0_5566_38101">
<rect width="40" height="40" fill="white" transform="matrix(-1 0 0 -1 40 40)"/>
</clipPath>
</defs>
</svg>
