<svg width="40" height="40" viewBox="0 0 40 40" fill="none" xmlns="http://www.w3.org/2000/svg">
<mask id="mask0_5566_38078" style="mask-type:luminance" maskUnits="userSpaceOnUse" x="0" y="0" width="40" height="40">
<path d="M40 20C40 8.9543 31.0457 0 20 0C8.9543 0 0 8.9543 0 20C0 31.0457 8.9543 40 20 40C31.0457 40 40 31.0457 40 20Z" fill="white"/>
</mask>
<g mask="url(#mask0_5566_38078)">
<path d="M40 20C40 8.9543 31.0457 0 20 0C8.9543 0 0 8.9543 0 20C0 31.0457 8.9543 40 20 40C31.0457 40 40 31.0457 40 20Z" fill="#DCACB1" fill-opacity="0.5"/>
<path d="M44 -4H-4V44H44V-4Z" fill="white"/>
<path d="M20 41.5C8.14 41.5 -1.5 31.86 -1.5 20C-1.5 8.14 8.14 -1.5 20 -1.5C31.86 -1.5 41.5 8.14 41.5 20C41.5 31.86 31.86 41.5 20 41.5ZM20 1.5C9.8 1.5 1.5 9.8 1.5 20C1.5 30.2 9.8 38.5 20 38.5C30.2 38.5 38.5 30.2 38.5 20C38.5 9.8 30.2 1.5 20 1.5Z" fill="#86262F"/>
<path d="M27 21.5H15C14.18 21.5 13.5 20.82 13.5 20C13.5 19.18 14.18 18.5 15 18.5H27C27.82 18.5 28.5 19.18 28.5 20C28.5 20.82 27.82 21.5 27 21.5Z" fill="#86262F"/>
<path d="M19.0009 27.5C18.6209 27.5 18.2409 27.36 17.9409 27.06L11.9409 21.06C11.3609 20.48 11.3609 19.52 11.9409 18.94L17.9409 12.94C18.5209 12.36 19.4809 12.36 20.0609 12.94C20.6409 13.52 20.6409 14.48 20.0609 15.06L15.1209 20L20.0609 24.94C20.6409 25.52 20.6409 26.48 20.0609 27.06C19.7609 27.36 19.3809 27.5 19.0009 27.5Z" fill="#86262F"/>
</g>
</svg>
