<svg width="24" height="24" viewBox="0 0 24 24" fill="none" xmlns="http://www.w3.org/2000/svg">
<path d="M12 22.75C6.07 22.75 1.25 17.93 1.25 12C1.25 6.07 6.07 1.25 12 1.25C17.93 1.25 22.75 6.07 22.75 12C22.75 17.93 17.93 22.75 12 22.75ZM12 2.75C6.9 2.75 2.75 6.9 2.75 12C2.75 17.1 6.9 21.25 12 21.25C17.1 21.25 21.25 17.1 21.25 12C21.25 6.9 17.1 2.75 12 2.75Z" fill="#A72F3B"/>
<path d="M14.5 12.75H8.5C8.09 12.75 7.75 12.41 7.75 12C7.75 11.59 8.09 11.25 8.5 11.25H14.5C14.91 11.25 15.25 11.59 15.25 12C15.25 12.41 14.91 12.75 14.5 12.75Z" fill="#A72F3B"/>
<path d="M12.4995 15.7475C12.3095 15.7475 12.1195 15.6775 11.9695 15.5275C11.6795 15.2375 11.6795 14.7575 11.9695 14.4675L14.4395 11.9975L11.9695 9.5275C11.6795 9.2375 11.6795 8.7575 11.9695 8.4675C12.2595 8.1775 12.7395 8.1775 13.0295 8.4675L16.0295 11.4675C16.3195 11.7575 16.3195 12.2375 16.0295 12.5275L13.0295 15.5275C12.8795 15.6775 12.6895 15.7475 12.4995 15.7475Z" fill="#A72F3B"/>
</svg>
