<svg width="16" height="16" viewBox="0 0 16 16" fill="none" xmlns="http://www.w3.org/2000/svg">
<path d="M5.93974 13.7795C5.81307 13.7795 5.68641 13.7329 5.58641 13.6329C5.39307 13.4395 5.39307 13.1195 5.58641 12.9262L9.93307 8.57952C10.2531 8.25952 10.2531 7.73952 9.93307 7.41952L5.58641 3.07286C5.39307 2.87952 5.39307 2.55952 5.58641 2.36619C5.77974 2.17286 6.09974 2.17286 6.29307 2.36619L10.6397 6.71286C10.9797 7.05286 11.1731 7.51286 11.1731 7.99952C11.1731 8.48619 10.9864 8.94619 10.6397 9.28619L6.29307 13.6329C6.19307 13.7262 6.06641 13.7795 5.93974 13.7795Z" fill="#EDD5D8"/>
</svg>
