<svg width="32" height="32" viewBox="0 0 32 32" fill="none" xmlns="http://www.w3.org/2000/svg">
<path d="M13.9065 24.4958C13.7065 24.4958 13.5199 24.4425 13.3465 24.3225C13.0665 24.1358 12.9065 23.8292 12.9065 23.4958C12.9065 23.2958 12.8932 23.0825 12.8665 22.8692C12.7465 21.9225 12.3199 21.0958 11.5999 20.3758C10.8799 19.6558 9.98655 19.2025 9.02655 19.0825C8.86655 19.0692 8.63988 19.0558 8.42655 19.0692C8.07988 19.0958 7.75988 18.9492 7.55988 18.6692C7.35988 18.4025 7.30655 18.0425 7.41321 17.7225C7.61321 17.1758 7.90655 16.6825 8.25321 16.2825L10.3065 13.6958C13.8399 9.2825 20.9999 3.97583 26.2399 1.86917C27.3465 1.4425 28.5332 1.69583 29.3465 2.49583C30.1865 3.33583 30.4399 4.53583 29.9999 5.62917C27.8932 10.8825 22.5999 18.0292 18.1865 21.5625L15.5599 23.6692C15.0665 24.0292 14.6665 24.2558 14.2665 24.4158C14.1599 24.4692 14.0265 24.4958 13.9065 24.4958ZM10.0532 17.2558C11.1732 17.5492 12.1732 18.1358 13.0132 18.9758C13.8532 19.8025 14.4132 20.7625 14.6932 21.8292L16.9465 20.0158C21.1332 16.6692 26.1599 9.8825 28.1465 4.89583C28.3465 4.4025 28.0665 4.05583 27.9332 3.93583C27.8399 3.8425 27.4932 3.54917 26.9599 3.74917C21.9999 5.74917 15.2132 10.7758 11.8532 14.9625L10.0532 17.2558Z" fill="#242424"/>
<path d="M5.43917 30.3321C4.43917 30.3321 3.47917 29.9321 2.75917 29.2121C1.9325 28.3854 1.5325 27.2388 1.66584 26.0654L2.02584 22.7854C2.3725 19.5321 5.03917 17.1188 8.34584 17.0521C8.59917 17.0388 8.9325 17.0521 9.23917 17.0788C10.6925 17.2654 11.9858 17.9188 13.0258 18.9588C14.0525 19.9854 14.6658 21.2121 14.8525 22.5854C14.8925 22.8788 14.9192 23.1988 14.9192 23.4788C14.9192 25.2388 14.2392 26.8788 13.0125 28.1188C11.9858 29.1321 10.6658 29.7588 9.1725 29.9454L5.87917 30.3054C5.7325 30.3188 5.58584 30.3321 5.43917 30.3321ZM8.59917 19.0654C8.54584 19.0654 8.47917 19.0654 8.42584 19.0654C6.4125 19.1054 4.27917 20.4788 4.0125 23.0121L3.6525 26.2921C3.58584 26.8521 3.78584 27.3988 4.1725 27.7988C4.55917 28.1854 5.10584 28.3854 5.6525 28.3188L8.9325 27.9588C9.95917 27.8254 10.8792 27.3988 11.5725 26.7054C12.4258 25.8521 12.9058 24.7054 12.9058 23.4788C12.9058 23.2788 12.8925 23.0654 12.8658 22.8521C12.7458 21.9054 12.3192 21.0788 11.5992 20.3588C10.8792 19.6388 9.98584 19.1854 9.02584 19.0654C8.91917 19.0654 8.75917 19.0654 8.59917 19.0654Z" fill="#242424"/>
<path d="M18.9864 20.291C18.4397 20.291 17.9864 19.8377 17.9864 19.291C17.9864 16.3577 15.5997 13.9844 12.6797 13.9844C12.133 13.9844 11.6797 13.531 11.6797 12.9844C11.6797 12.4377 12.1197 11.9844 12.6664 11.9844C16.693 11.9844 19.973 15.2644 19.973 19.291C19.9864 19.851 19.533 20.291 18.9864 20.291Z" fill="#242424"/>
</svg>
