<svg width="40" height="40" viewBox="0 0 40 40" fill="none" xmlns="http://www.w3.org/2000/svg">
<path d="M20.0007 37.9162C18.9507 37.9162 17.9673 37.5163 17.234 36.7663L14.7007 34.233C14.5007 34.033 13.9673 33.8163 13.7007 33.8163H10.1006C7.93398 33.8163 6.18397 32.0661 6.18397 29.8995V26.2996C6.18397 26.033 5.9673 25.4997 5.7673 25.2997L3.23399 22.7663C2.50066 22.033 2.08398 21.0496 2.08398 19.9996C2.08398 18.9496 2.48399 17.9662 3.23399 17.2329L5.7673 14.6995C5.9673 14.4995 6.18397 13.9662 6.18397 13.6995V10.0997C6.18397 7.93301 7.93398 6.18285 10.1006 6.18285H13.7007C13.9673 6.18285 14.5007 5.96618 14.7007 5.76618L17.234 3.23281C18.7006 1.76615 21.3007 1.76615 22.7673 3.23281L25.3006 5.76618C25.5006 5.96618 26.034 6.18285 26.3006 6.18285H29.9007C32.0673 6.18285 33.8173 7.93301 33.8173 10.0997V13.6995C33.8173 13.9662 34.034 14.4995 34.234 14.6995L36.7673 17.2329C37.5006 17.9662 37.9173 18.9496 37.9173 19.9996C37.9173 21.0496 37.5173 22.033 36.7673 22.7663L34.234 25.2997C34.034 25.4997 33.8173 26.033 33.8173 26.2996V29.8995C33.8173 32.0661 32.0673 33.8163 29.9007 33.8163H26.3006C26.034 33.8163 25.5006 34.033 25.3006 34.233L22.7673 36.7663C22.034 37.5163 21.0507 37.9162 20.0007 37.9162ZM7.53397 23.5329C8.20063 24.1996 8.68397 25.3663 8.68397 26.2996V29.8995C8.68397 30.6828 9.31731 31.3163 10.1006 31.3163H13.7007C14.634 31.3163 15.8007 31.7995 16.4673 32.4662L19.0006 34.9996C19.534 35.5329 20.4673 35.5329 21.0007 34.9996L23.534 32.4662C24.2006 31.7995 25.3673 31.3163 26.3006 31.3163H29.9007C30.684 31.3163 31.3173 30.6828 31.3173 29.8995V26.2996C31.3173 25.3663 31.8007 24.1996 32.4673 23.5329L35.0007 20.9995C35.2673 20.7329 35.4173 20.3829 35.4173 19.9996C35.4173 19.6162 35.2673 19.2663 35.0007 18.9996L32.4673 16.4663C31.8007 15.7996 31.3173 14.6329 31.3173 13.6995V10.0997C31.3173 9.31634 30.684 8.68285 29.9007 8.68285H26.3006C25.3673 8.68285 24.2006 8.19961 23.534 7.53294L21.0007 4.99958C20.4673 4.46624 19.534 4.46624 19.0006 4.99958L16.4673 7.53294C15.8007 8.19961 14.634 8.68285 13.7007 8.68285H10.1006C9.31731 8.68285 8.68397 9.31634 8.68397 10.0997V13.6995C8.68397 14.6329 8.20063 15.7996 7.53397 16.4663L5.00065 18.9996C4.73398 19.2663 4.58398 19.6162 4.58398 19.9996C4.58398 20.3829 4.73398 20.7329 5.00065 20.9995L7.53397 23.5329Z" fill="#242424"/>
<path d="M24.9998 26.6693C24.0664 26.6693 23.3164 25.9193 23.3164 25.0026C23.3164 24.0859 24.0664 23.3359 24.9831 23.3359C25.8997 23.3359 26.6497 24.0859 26.6497 25.0026C26.6497 25.9193 25.9164 26.6693 24.9998 26.6693Z" fill="#242424"/>
<path d="M15.0173 16.6693C14.084 16.6693 13.334 15.9193 13.334 15.0026C13.334 14.0859 14.084 13.3359 15.0007 13.3359C15.9173 13.3359 16.6673 14.0859 16.6673 15.0026C16.6673 15.9193 15.934 16.6693 15.0173 16.6693Z" fill="#242424"/>
<path d="M14.9997 26.2459C14.6831 26.2459 14.3664 26.1293 14.1164 25.8793C13.6331 25.3959 13.6331 24.5958 14.1164 24.1125L24.1164 14.1125C24.5997 13.6292 25.3997 13.6292 25.8831 14.1125C26.3664 14.5958 26.3664 15.3959 25.8831 15.8793L15.8831 25.8793C15.6331 26.1293 15.3164 26.2459 14.9997 26.2459Z" fill="#242424"/>
</svg>
