<svg width="24" height="24" viewBox="0 0 24 24" fill="none" xmlns="http://www.w3.org/2000/svg">
<path d="M9 10.75C7.48 10.75 6.25 9.52 6.25 8C6.25 6.48 7.48 5.25 9 5.25C10.52 5.25 11.75 6.48 11.75 8C11.75 9.52 10.52 10.75 9 10.75ZM9 6.75C8.31 6.75 7.75 7.31 7.75 8C7.75 8.69 8.31 9.25 9 9.25C9.69 9.25 10.25 8.69 10.25 8C10.25 7.31 9.69 6.75 9 6.75Z" fill="white"/>
<path d="M15 22.75H9C3.57 22.75 1.25 20.43 1.25 15V9C1.25 3.57 3.57 1.25 9 1.25H13C13.41 1.25 13.75 1.59 13.75 2C13.75 2.41 13.41 2.75 13 2.75H9C4.39 2.75 2.75 4.39 2.75 9V15C2.75 19.61 4.39 21.25 9 21.25H15C19.61 21.25 21.25 19.61 21.25 15V10C21.25 9.59 21.59 9.25 22 9.25C22.41 9.25 22.75 9.59 22.75 10V15C22.75 20.43 20.43 22.75 15 22.75Z" fill="white"/>
<path d="M17.4604 7.19999C17.2704 7.19999 17.0804 7.12999 16.9304 6.97999L15.4704 5.51999C15.1804 5.22999 15.1804 4.74999 15.4704 4.45999C15.7604 4.16999 16.2404 4.16999 16.5304 4.45999L17.4604 5.38999L20.8304 2.01999C21.1204 1.72999 21.6004 1.72999 21.8904 2.01999C22.1804 2.30999 22.1804 2.78999 21.8904 3.07999L17.9904 6.97999C17.8504 7.12999 17.6504 7.19999 17.4604 7.19999Z" fill="white"/>
<path d="M2.66977 19.6996C2.42977 19.6996 2.18977 19.5796 2.04977 19.3696C1.81977 19.0296 1.90977 18.5596 2.25977 18.3296L7.18977 15.0196C8.26977 14.2896 9.75977 14.3796 10.7398 15.2096L11.0698 15.4996C11.5698 15.9296 12.4198 15.9296 12.9098 15.4996L17.0698 11.9296C18.1298 11.0196 19.7998 11.0196 20.8698 11.9296L22.4998 13.3296C22.8098 13.5996 22.8498 14.0696 22.5798 14.3896C22.3098 14.6996 21.8398 14.7396 21.5198 14.4696L19.8898 13.0696C19.3898 12.6396 18.5398 12.6396 18.0398 13.0696L13.8798 16.6396C12.8198 17.5496 11.1498 17.5496 10.0798 16.6396L9.74977 16.3496C9.28977 15.9596 8.52977 15.9196 8.01977 16.2696L3.08977 19.5796C2.95977 19.6596 2.80977 19.6996 2.66977 19.6996Z" fill="white"/>
</svg>
