<svg width="16" height="16" viewBox="0 0 16 16" fill="none" xmlns="http://www.w3.org/2000/svg">
<path d="M7.66634 14.5002C3.89967 14.5002 0.833008 11.4335 0.833008 7.66683C0.833008 3.90016 3.89967 0.833496 7.66634 0.833496C11.433 0.833496 14.4997 3.90016 14.4997 7.66683C14.4997 11.4335 11.433 14.5002 7.66634 14.5002ZM7.66634 1.8335C4.44634 1.8335 1.83301 4.4535 1.83301 7.66683C1.83301 10.8802 4.44634 13.5002 7.66634 13.5002C10.8863 13.5002 13.4997 10.8802 13.4997 7.66683C13.4997 4.4535 10.8863 1.8335 7.66634 1.8335Z" fill="#898989"/>
<path d="M14.6666 15.1671C14.54 15.1671 14.4133 15.1205 14.3133 15.0205L12.98 13.6871C12.7866 13.4938 12.7866 13.1738 12.98 12.9804C13.1733 12.7871 13.4933 12.7871 13.6866 12.9804L15.02 14.3138C15.2133 14.5071 15.2133 14.8271 15.02 15.0205C14.92 15.1205 14.7933 15.1671 14.6666 15.1671Z" fill="#898989"/>
</svg>
