<svg width="40" height="40" viewBox="0 0 40 40" fill="none" xmlns="http://www.w3.org/2000/svg">
<path d="M29.4342 37.7865C28.5508 37.7865 27.4175 37.5031 26.0008 36.6698L21.0175 33.7198C20.5008 33.4198 19.5008 33.4198 19.0008 33.7198L14.0008 36.6698C11.0508 38.4198 9.31751 37.7198 8.53418 37.1531C7.76751 36.5865 6.56751 35.1365 7.35085 31.8031L8.53418 26.6865C8.66751 26.1531 8.40085 25.2365 8.00085 24.8365L3.86751 20.7031C1.80085 18.6365 1.96751 16.8698 2.25085 16.0031C2.53418 15.1365 3.43418 13.6031 6.30085 13.1198L11.6175 12.2365C12.1175 12.1531 12.8342 11.6198 13.0508 11.1698L16.0008 5.28646C17.3342 2.60313 19.0842 2.20312 20.0008 2.20312C20.9175 2.20312 22.6675 2.60313 24.0008 5.28646L26.9342 11.1531C27.1675 11.6031 27.8842 12.1365 28.3842 12.2198L33.7008 13.1031C36.5842 13.5865 37.4842 15.1198 37.7508 15.9865C38.0175 16.8531 38.1842 18.6198 36.1342 20.6865L32.0008 24.8365C31.6008 25.2365 31.3508 26.1365 31.4675 26.6865L32.6508 31.8031C33.4175 35.1365 32.2342 36.5865 31.4675 37.1531C31.0508 37.4531 30.3842 37.7865 29.4342 37.7865ZM20.0008 30.9865C20.8175 30.9865 21.6342 31.1865 22.2842 31.5698L27.2675 34.5198C28.7175 35.3865 29.6342 35.3865 29.9842 35.1365C30.3342 34.8865 30.5842 34.0031 30.2175 32.3698L29.0342 27.2531C28.7175 25.8698 29.2342 24.0865 30.2342 23.0698L34.3675 18.9365C35.1842 18.1198 35.5508 17.3198 35.3842 16.7698C35.2008 16.2198 34.4342 15.7698 33.3008 15.5865L27.9842 14.7031C26.7008 14.4865 25.3008 13.4531 24.7175 12.2865L21.7842 6.41979C21.2508 5.35312 20.5842 4.71979 20.0008 4.71979C19.4175 4.71979 18.7508 5.35312 18.2342 6.41979L15.2842 12.2865C14.7008 13.4531 13.3008 14.4865 12.0175 14.7031L6.71751 15.5865C5.58418 15.7698 4.81751 16.2198 4.63418 16.7698C4.45085 17.3198 4.83418 18.1365 5.65085 18.9365L9.78418 23.0698C10.7842 24.0698 11.3008 25.8698 10.9842 27.2531L9.80085 32.3698C9.41751 34.0198 9.68418 34.8865 10.0342 35.1365C10.3842 35.3865 11.2842 35.3698 12.7508 34.5198L17.7342 31.5698C18.3675 31.1865 19.1842 30.9865 20.0008 30.9865Z" fill="#242424"/>
</svg>
